<?xml version="1.0" encoding="UTF-8"?>
<svg version="1.1" xmlns="http://www.w3.org/2000/svg" width="3840" height="2160">
<path d="M0 0 C7.36178837 7.02773104 13.97173895 14.39413334 20.27636719 22.38574219 C21.1483541 23.44105486 22.02344689 24.49380763 22.90136719 25.54418945 C23.68511719 26.48190186 24.46886719 27.41961426 25.27636719 28.38574219 C22.88679889 21.3255745 20.49594813 14.26584217 18.10355091 7.20663261 C16.99217449 3.92718522 15.88120664 0.64760071 14.77124023 -2.63232422 C13.48908142 -6.4210102 12.20502397 -10.20905047 10.92089844 -13.99707031 C10.53110306 -15.14974396 10.14130768 -16.3024176 9.73970032 -17.49002075 C9.35968369 -18.61012543 8.97966705 -19.7302301 8.58813477 -20.88427734 C8.21741852 -21.9838678 7.84670227 -23.08345825 7.4647522 -24.21636963 C6.63033489 -26.60217616 5.75118031 -28.97257937 4.83969116 -31.33001709 C4.37237579 -32.55029602 3.90506042 -33.77057495 3.42358398 -35.02783203 C2.98982956 -36.12312225 2.55607513 -37.21841248 2.10917664 -38.34689331 C1.12974627 -42.18949621 1.29700451 -44.78435704 2.27636719 -48.61425781 C5.74277366 -50.92519546 7.05791674 -50.8670914 11.14620972 -50.87495422 C12.3715744 -50.88203903 13.59693909 -50.88912384 14.85943604 -50.89642334 C16.21960486 -50.89412944 17.57977333 -50.89161973 18.93994141 -50.88891602 C20.37067939 -50.89326267 21.80141504 -50.89844566 23.23214722 -50.90440369 C27.12063719 -50.9178113 31.00903007 -50.91837032 34.89753866 -50.91584039 C38.14306457 -50.91477168 41.38857076 -50.91965157 44.63409245 -50.92444581 C52.29139561 -50.93554749 59.94864972 -50.93597496 67.60595703 -50.92993164 C75.50568344 -50.92389283 83.4052317 -50.93619893 91.30492771 -50.95750171 C98.08633812 -50.97511652 104.86769182 -50.98111919 111.64912426 -50.97786397 C115.69973474 -50.97605047 119.75021818 -50.97869367 123.80080795 -50.99257851 C127.61099865 -51.00515002 131.42091176 -51.00321933 135.23109818 -50.99016762 C136.62870121 -50.98780064 138.02632373 -50.99054092 139.42390442 -50.99879074 C141.33342986 -51.00924871 143.24303429 -50.99936015 145.15255737 -50.98847961 C146.22070616 -50.98864736 147.28885494 -50.9888151 148.38937187 -50.98898792 C152.77505436 -50.41972919 155.36653662 -48.52719304 158.44064331 -45.44259644 C160.72818934 -41.91812586 161.69273544 -38.39772666 162.64794922 -34.36083984 C162.85410795 -33.53622757 163.06026669 -32.7116153 163.27267265 -31.86201477 C163.95543294 -29.11823916 164.61970362 -26.37032604 165.28417969 -23.62207031 C165.76574583 -21.67230512 166.24851965 -19.72283785 166.73242188 -17.77365112 C167.76376313 -13.60934456 168.78715454 -9.4431968 169.80426025 -5.27539062 C171.41345221 1.31797348 173.04019049 7.90692502 174.67041016 14.49511719 C176.32003949 21.16434739 177.96901108 27.83373037 179.61209106 34.50457764 C183.7837348 51.4378072 188.03623481 68.34910074 192.34619141 85.24758911 C194.11939067 92.19997033 195.88636262 99.15393278 197.65136719 106.10839844 C197.82942902 106.8099172 198.00749084 107.51143597 198.19094849 108.23421288 C206.99237384 142.9244697 215.61538903 177.66021299 224.27636719 212.38574219 C226.05605272 209.16323317 226.98887338 206.02687107 227.87634277 202.46012878 C228.33367546 200.63687828 228.33367546 200.63687828 228.80024719 198.77679443 C229.13286592 197.43056273 229.46539774 196.08430955 229.79785156 194.73803711 C230.15276447 193.31561766 230.50809674 191.89330278 230.86381531 190.47108459 C231.63208148 187.39553678 232.39733559 184.31926047 233.16029358 181.24239159 C234.38731631 176.2940804 235.62095535 171.34743253 236.85534668 166.4009552 C238.83141242 158.47902892 240.80290678 150.55597284 242.77257299 142.63245326 C246.4343941 127.90239248 250.10479586 113.17446724 253.77578735 98.44668961 C254.63148574 95.01367434 255.48691404 91.58059195 256.34213257 88.14745712 C263.11165197 60.9747727 269.95137873 33.8204023 276.85226583 6.68078643 C277.20949876 5.27580847 277.56662237 3.87080272 277.92363214 2.46576804 C278.77061914 -0.86710851 279.61929329 -4.19953341 280.47199249 -7.53095341 C282.01937538 -13.59193642 283.5346334 -19.65681198 284.97045898 -25.74526978 C285.23575157 -26.85513402 285.50104416 -27.96499826 285.77437592 -29.10849476 C286.26211673 -31.1581295 286.7394934 -33.21027273 287.2039566 -35.26530743 C288.66802876 -41.38030803 290.22688403 -45.44197109 295.5278616 -49.21810055 C298.73877134 -50.84914506 300.80543643 -50.99140472 304.39344788 -50.99520874 C305.62300705 -51.00366821 306.85256622 -51.01212769 308.11938477 -51.02084351 C309.47387829 -51.0150112 310.82837049 -51.00886673 312.18286133 -51.00244141 C313.61551819 -51.00650841 315.04817191 -51.01185102 316.4808197 -51.01837158 C320.36504425 -51.03203454 324.24902944 -51.02675116 328.1332581 -51.01723433 C332.1993138 -51.00963389 336.26534913 -51.01668427 340.33140564 -51.02139282 C347.15823035 -51.02684864 353.98495766 -51.01966271 360.81176758 -51.00537109 C368.70474899 -50.98903834 376.597498 -50.99433825 384.49047381 -51.01085031 C391.26852059 -51.02446237 398.0464974 -51.02638642 404.82455343 -51.0185343 C408.87229723 -51.01385707 412.91993175 -51.01323441 416.96766853 -51.02314377 C420.77215399 -51.03180735 424.57633957 -51.02580292 428.38079262 -51.008461 C429.77719881 -51.00449315 431.17363023 -51.00563534 432.5700264 -51.01224899 C434.47543183 -51.02044171 436.3808924 -51.00834804 438.28627014 -50.99520874 C439.88597955 -50.99351213 439.88597955 -50.99351213 441.51800632 -50.99178123 C444.64603394 -50.56366332 446.0241189 -49.79225096 448.27636719 -47.61425781 C450.2161648 -40.09589966 446.87449226 -32.17183485 444.39355469 -25.17285156 C443.98768631 -23.98885773 443.58181793 -22.80486389 443.16365051 -21.58499146 C442.06753183 -18.39619985 440.9582897 -15.21259199 439.84280014 -12.03056717 C438.67755526 -8.69575725 437.53007953 -5.35484671 436.38110352 -2.0144043 C434.54110787 3.32921325 432.69236561 8.66971276 430.83642578 14.0078125 C427.78352211 22.79115278 424.78374489 31.59229369 421.7901001 40.39596558 C420.40834427 44.45523696 419.01985545 48.51220301 417.63183594 52.56933594 C414.00573806 63.1722119 410.39099969 73.77895327 406.77636719 84.38574219 C401.65994687 99.39808701 396.5380985 114.40856722 391.41162109 129.41748047 C386.86175481 142.73860618 382.31755302 156.06165495 377.77636719 169.38574219 C372.65979778 184.39803625 367.53809854 199.40856711 362.41162109 214.41748047 C357.86175481 227.73860618 353.31755302 241.06165495 348.77636719 254.38574219 C345.10157754 265.1677757 341.4262874 275.94963511 337.74511719 286.72949219 C337.45758072 287.57152191 337.17004425 288.41355164 336.87379456 289.28109741 C335.43680753 293.488845 333.99934707 297.69643025 332.5612793 301.90380859 C329.80640024 309.96543822 327.05625938 318.02862039 324.31900024 326.09625244 C322.98341585 330.03240934 321.64612568 333.967986 320.30883789 337.90356445 C319.67610747 339.76735608 319.04423114 341.63143794 318.41333008 343.49584961 C316.39235666 349.46782879 314.34920731 355.43156109 312.27636719 361.38574219 C311.97204773 362.2629895 311.66772827 363.14023682 311.35418701 364.04406738 C310.44284897 366.65447693 309.51645077 369.25902655 308.58496094 371.86230469 C308.31184586 372.64721283 308.03873077 373.43212097 307.75733948 374.24081421 C305.97373979 379.15714885 304.12236065 383.58271959 299.51788139 386.49979591 C296.68685895 387.61874211 294.41378152 387.64345223 291.368927 387.65316772 C289.55622818 387.66596268 289.55622818 387.66596268 287.70690918 387.67901611 C286.37084948 387.67831712 285.03478988 387.67739407 283.69873047 387.67626953 C282.28917078 387.68225507 280.87961436 387.68906068 279.47006226 387.69662476 C275.64355447 387.71428945 271.81713614 387.71898033 267.99059153 387.72025633 C265.59914502 387.72167822 263.20772123 387.72594854 260.81628036 387.73125076 C252.4710928 387.74975258 244.12596912 387.75792119 235.78076172 387.75634766 C228.00538808 387.7551462 220.230292 387.77624875 212.4549886 387.80783498 C205.77629992 387.83399819 199.09770189 387.84471494 192.41896236 387.84343684 C188.4314421 387.84292721 184.44416852 387.84861037 180.45669937 387.86979294 C176.70552717 387.8891763 172.95483694 387.88929955 169.20364761 387.87475967 C167.17470208 387.87167612 165.14575651 387.88834731 163.11688232 387.90563965 C151.70844426 387.82681197 151.70844426 387.82681197 147.27636719 383.38574219 C145.78756714 380.92726135 145.78756714 380.92726135 144.74072266 378.1262207 C144.33593689 377.05969269 143.93115112 375.99316467 143.51409912 374.89431763 C143.10564758 373.73648773 142.69719604 372.57865784 142.27636719 371.38574219 C141.85035217 370.18642059 141.42433716 368.987099 140.9854126 367.75143433 C139.5659977 363.69352886 138.20605387 359.61640799 136.84667969 355.53808594 C136.33468017 354.01328622 135.82223335 352.48863663 135.30937195 350.96412659 C134.22797442 347.74750474 133.14894885 344.53010227 132.07192993 341.31201172 C129.26127653 332.91508299 126.434776 324.52348224 123.60839844 316.13183594 C123.3303581 315.30590816 123.05231777 314.47998039 122.76585197 313.62902451 C118.29453323 300.35013218 113.74241521 287.10199856 109.08886719 273.88574219 C103.73591322 258.67015007 98.57410709 243.39860913 93.49926758 228.08813477 C89.23546186 215.22898862 84.90323532 202.39434224 80.52636719 189.57324219 C80.223508 188.68449402 79.9206488 187.79574585 79.60861206 186.88006592 C78.75461948 184.37491572 77.8986981 181.87043436 77.04199219 179.36621094 C76.79056961 178.62865067 76.53914703 177.89109039 76.28010559 177.13117981 C75.03733832 173.50814908 73.73957541 169.9258596 72.27636719 166.38574219 C72.17932495 167.82518188 72.17932495 167.82518188 72.08032227 169.29370117 C68.46349455 221.81051815 55.75064303 270.52775339 22.27636719 312.38574219 C21.15681641 313.82240234 21.15681641 313.82240234 20.01464844 315.28808594 C11.4542581 326.06373441 2.02061309 336.74116406 -8.72363281 345.38574219 C-9.79696734 346.28237763 -10.86983792 347.17956858 -11.94238281 348.07714844 C-21.06830834 355.63133221 -30.6156202 362.21838268 -40.72363281 368.38574219 C-41.35817383 368.77858398 -41.99271484 369.17142578 -42.64648438 369.57617188 C-91.84015241 399.77197125 -153.81608199 407.20532965 -209.51269531 394.06933594 C-228.08050406 389.39445634 -245.90030362 382.51751483 -262.72363281 373.38574219 C-263.33287598 373.05574219 -263.94211914 372.72574219 -264.56982422 372.38574219 C-276.71939362 365.74514487 -288.10631861 358.27966626 -298.72363281 349.38574219 C-299.2627832 348.93682617 -299.80193359 348.48791016 -300.35742188 348.02539062 C-311.94402266 338.3537166 -322.33628798 328.2492147 -331.72363281 316.38574219 C-332.59582997 315.32591159 -333.46958279 314.26735971 -334.34472656 313.20996094 C-341.76088399 304.15387023 -347.92455234 294.54363624 -353.72363281 284.38574219 C-354.16094727 283.62100586 -354.59826172 282.85626953 -355.04882812 282.06835938 C-366.00127946 262.67458633 -373.95664853 241.48916595 -378.76431274 219.72796631 C-378.94406458 218.9154327 -379.12381641 218.10289909 -379.30901527 217.26574326 C-379.44583906 216.6453429 -379.58266285 216.02494255 -379.72363281 215.38574219 C-379.72444996 216.66210808 -379.72444996 216.66210808 -379.72528362 217.96425915 C-379.74024642 238.6622242 -379.78267293 259.35997374 -379.85572338 280.05781841 C-379.89038669 290.06713489 -379.91573066 300.07631345 -379.91918945 310.08569336 C-379.92222748 318.80918542 -379.94269621 327.53243195 -379.98415738 336.25582916 C-380.00550377 340.87550881 -380.01807962 345.49483927 -380.00978661 350.11456871 C-380.00225677 354.46251319 -380.01802525 358.80974951 -380.05169296 363.15756416 C-380.0599392 364.75348702 -380.05966087 366.34948013 -380.05023003 367.94539642 C-380.03862341 370.12525613 -380.05769709 372.30278892 -380.08439636 374.48246765 C-380.08716174 375.70199977 -380.08992712 376.92153189 -380.0927763 378.17801952 C-380.91457928 382.35664965 -382.3659862 383.82957338 -385.72363281 386.38574219 C-388.25600147 387.08766651 -388.25600147 387.08766651 -390.89228821 387.18916321 C-392.3387419 387.2585356 -392.3387419 387.2585356 -393.81441689 387.32930946 C-394.77445814 387.34793226 -395.7344994 387.36655506 -396.72363281 387.38574219 C-397.5716918 387.411621 -398.41975079 387.43749981 -399.29350853 387.46416283 C-401.8716383 387.52128627 -404.44640773 387.53232942 -407.02514648 387.53100586 C-407.98925949 387.53436447 -408.9533725 387.53772308 -409.94670105 387.54118347 C-413.09501474 387.55058891 -416.24327475 387.55263074 -419.39160156 387.55371094 C-421.59873984 387.55692884 -423.80587791 387.5602933 -426.01301575 387.563797 C-430.62155655 387.5697608 -435.23007866 387.57163954 -439.83862305 387.57104492 C-445.73292233 387.57094301 -451.62710193 387.5846372 -457.5213728 387.60181713 C-462.07250008 387.61294845 -466.62359842 387.61496384 -471.17473793 387.6144352 C-473.34796883 387.61561198 -475.52120056 387.62001676 -477.69441795 387.62776756 C-480.73313147 387.637598 -483.77158476 387.63467817 -486.81030273 387.62866211 C-487.69933289 387.63428162 -488.58836304 387.63990112 -489.5043335 387.64569092 C-495.93562284 387.61344291 -502.19087577 387.38838729 -507.41113281 383.26074219 C-512.8956143 376.44219763 -516.89209291 368.58578682 -521.07983398 360.93457031 C-522.48673216 358.36419128 -523.89873609 355.796629 -525.31048584 353.22891235 C-526.04107253 351.90008513 -526.7714179 350.57112521 -527.50152588 349.24203491 C-531.05370578 342.77774239 -534.63651292 336.33071396 -538.22363281 329.88574219 C-545.41542359 316.95490427 -552.56516943 304.00114923 -559.70751953 291.04296875 C-561.71330746 287.40413384 -563.72023924 283.76593076 -565.72753906 280.12792969 C-566.22223694 279.23134644 -566.22223694 279.23134644 -566.72692871 278.31665039 C-567.7258107 276.50633696 -568.7247169 274.6960369 -569.72363281 272.88574219 C-573.39987125 266.22344465 -577.07607643 259.56113031 -580.74919128 252.89710999 C-587.70352609 240.28008732 -594.66712248 227.66832393 -601.66113281 215.07324219 C-602.23935791 214.03151855 -602.81758301 212.98979492 -603.41333008 211.91650391 C-606.74116169 205.92877894 -610.08842129 199.95234914 -613.44848633 193.98266602 C-613.86151253 193.24863808 -614.27453873 192.51461014 -614.70008087 191.75833893 C-615.70782631 189.96741414 -616.71571469 188.17656979 -617.72363281 186.38574219 C-617.72417758 187.37488176 -617.72472235 188.36402134 -617.72528362 189.38313484 C-617.73967528 213.44455003 -617.7826763 237.50578424 -617.85572338 261.5670948 C-617.89038516 273.20295434 -617.91573047 284.83869527 -617.91918945 296.47460938 C-617.92222768 306.61578746 -617.94269927 316.75675437 -617.98415738 326.89785087 C-618.00550174 332.26816934 -618.01808053 337.63818746 -618.00978661 343.00854874 C-618.00225569 348.06314522 -618.01803048 353.11713267 -618.05169296 358.17161751 C-618.05993777 360.02674502 -618.05966262 361.88193297 -618.05023003 363.73705482 C-618.03862061 366.27115134 -618.05770524 368.80324768 -618.08439636 371.33718872 C-618.0737231 372.07066469 -618.06304984 372.80414067 -618.05205315 373.55984318 C-618.1634057 379.22946914 -619.79134097 381.58427532 -623.72363281 385.38574219 C-626.72799747 386.38719707 -628.862572 386.55550199 -632.00814819 386.6338501 C-633.10415344 386.6626828 -634.20015869 386.6915155 -635.32937622 386.72122192 C-636.53246429 386.7474765 -637.73555237 386.77373108 -638.97509766 386.80078125 C-640.87563904 386.84677963 -640.87563904 386.84677963 -642.8145752 386.89370728 C-654.51766831 387.16804056 -666.22292964 387.32605509 -677.92845726 387.45230484 C-685.79144923 387.5391007 -693.65054078 387.66154974 -701.51123047 387.87402344 C-708.37762278 388.05959108 -715.24128428 388.17705639 -722.1101433 388.21409392 C-725.74165544 388.23588488 -729.36577439 388.28980949 -732.99497604 388.42517853 C-754.95996816 389.21132619 -754.95996816 389.21132619 -761.18695831 384.53639221 C-765.32114316 380.10276586 -768.08915119 375.15268206 -770.61561966 369.67632294 C-772.1992714 366.40246091 -774.20311034 363.63086329 -776.34863281 360.69824219 C-781.02765405 353.95293784 -785.67713435 347.18755072 -790.32519531 340.42089844 C-791.68641476 338.4399059 -793.04858394 336.45957051 -794.41113281 334.47949219 C-799.9142743 326.48139274 -805.40262635 318.47331755 -810.8828125 310.45947266 C-816.14978465 302.7590656 -821.43482526 295.07116166 -826.72363281 287.38574219 C-833.12332689 278.08604033 -839.51047171 268.77794275 -845.8828125 259.45947266 C-851.14978465 251.7590656 -856.43482526 244.07116166 -861.72363281 236.38574219 C-867.61047187 227.83129451 -873.48838628 219.27093597 -879.34863281 210.69824219 C-883.71078657 204.31779747 -888.09219202 197.95161955 -892.49707031 191.60058594 C-899.66661462 181.24877021 -906.77434779 170.85433899 -913.88232422 160.46020508 C-918.70362985 153.41131608 -923.53977224 146.37271487 -928.38085938 139.33740234 C-931.12294778 135.35190149 -933.86302938 131.36502057 -936.60351562 127.37841797 C-938.86948345 124.08224578 -941.13587972 120.78637022 -943.40332031 117.49121094 C-948.910314 109.48685965 -954.40313491 101.47295405 -959.88720703 93.45288086 C-963.7675898 87.77938665 -967.65840629 82.1131753 -971.55517578 76.45092773 C-975.16280922 71.20672752 -978.7566363 65.95316155 -982.34863281 60.69824219 C-986.70811527 54.32165731 -991.08661622 47.95917851 -995.48925781 41.61230469 C-998.96715633 36.59002466 -1002.42506079 31.55404725 -1005.88378906 26.51855469 C-1007.80598118 23.72009846 -1009.73064313 20.92336447 -1011.65722656 18.12792969 C-1012.13949707 17.42772705 -1012.62176758 16.72752441 -1013.11865234 16.00610352 C-1014.02666382 14.68787604 -1014.93514872 13.36997446 -1015.84423828 12.05249023 C-1019.1884775 7.19507571 -1022.45123524 2.29433855 -1025.72363281 -2.61425781 C-1026.05363281 125.75574219 -1026.38363281 254.12574219 -1026.72363281 386.38574219 C-1035.63363281 386.38574219 -1044.54363281 386.38574219 -1053.72363281 386.38574219 C-1055.37278472 384.73659028 -1054.84674459 382.76920148 -1054.85464129 380.56524077 C-1054.85201427 379.86837317 -1054.84938726 379.17150557 -1054.84668064 378.45352077 C-1054.84783449 377.716236 -1054.84898833 376.97895123 -1054.85017714 376.2193245 C-1054.8528508 373.71727489 -1054.84831553 371.215288 -1054.84388733 368.71324158 C-1054.84432288 366.91396541 -1054.84519748 365.1146893 -1054.8464765 363.31541353 C-1054.84872466 358.34657868 -1054.8446958 353.37776517 -1054.83969843 348.40893304 C-1054.8353987 343.05988906 -1054.83684002 337.71084637 -1054.83760071 332.36180115 C-1054.83812625 323.0860611 -1054.83497633 313.81032805 -1054.82936287 304.53458977 C-1054.82125191 291.12326218 -1054.81863307 277.711938 -1054.81737488 264.30060823 C-1054.81518372 242.54407218 -1054.80852191 220.78753987 -1054.79907227 199.03100586 C-1054.78989979 177.89070657 -1054.78281816 156.7504083 -1054.77856445 135.61010742 C-1054.77830173 134.30804007 -1054.77803901 133.00597273 -1054.77776832 131.66444879 C-1054.77646333 125.13266436 -1054.77519961 118.60087993 -1054.77395642 112.06909549 C-1054.76358182 57.84130847 -1054.74596178 3.61352551 -1054.72363281 -50.61425781 C-1050.19171253 -50.81276205 -1045.66091413 -50.93334616 -1041.12597656 -51.04003906 C-1039.84444702 -51.09712036 -1038.56291748 -51.15420166 -1037.24255371 -51.2130127 C-1027.91626597 -51.37779878 -1027.91626597 -51.37779878 -1024.43614864 -49.14977741 C-1021.66416559 -46.25375759 -1019.56960673 -43.07712126 -1018.00878906 -39.37597656 C-1015.62332556 -34.2040864 -1012.51145587 -29.74813095 -1009.22363281 -25.11425781 C-1008.112535 -23.49653958 -1007.0044302 -21.87676134 -1005.89941406 -20.25488281 C-998.59105644 -9.57428092 -991.24657943 1.0794268 -983.84863281 11.69824219 C-977.24597096 21.17633214 -970.703853 30.69398142 -964.19238281 40.23486328 C-961.93657795 43.53832752 -959.67569392 46.83827509 -957.41113281 50.13574219 C-956.97397949 50.7724585 -956.53682617 51.4091748 -956.08642578 52.06518555 C-953.42181389 55.93869777 -950.73897603 59.79895284 -948.04394531 63.65136719 C-940.32262364 74.69517386 -932.71211972 85.79731643 -925.30297852 97.05371094 C-921.55172758 102.73202491 -917.6609203 108.27398947 -913.63427734 113.76025391 C-910.80964134 117.64169214 -908.10668317 121.60156837 -905.41113281 125.57324219 C-904.27584876 127.23869717 -903.14043011 128.90406043 -902.00488281 130.56933594 C-901.44929688 131.38515137 -900.89371094 132.2009668 -900.32128906 133.04150391 C-898.0248654 136.41104241 -895.72030403 139.77492956 -893.41113281 143.13574219 C-892.75745728 144.08719116 -892.75745728 144.08719116 -892.09057617 145.05786133 C-888.07545323 150.89212457 -884.02354848 156.70060385 -879.97363281 162.51074219 C-872.70670372 172.93881997 -865.53736628 183.43110385 -858.38867188 193.94042969 C-851.64700003 203.84139525 -844.82278423 213.68391178 -837.97363281 223.51074219 C-832.05087673 232.00891389 -826.1911339 240.54731049 -820.36914062 249.11474609 C-815.8639545 255.73564691 -811.3059155 262.3180069 -806.72363281 268.88574219 C-800.14470186 278.31631624 -793.64731724 287.79980117 -787.18066406 297.30761719 C-784.16671357 301.73877799 -781.13759819 306.15921287 -778.09863281 310.57324219 C-771.95733311 319.49954989 -765.84191284 328.4436406 -759.72363281 337.38574219 C-759.39363281 209.34574219 -759.06363281 81.30574219 -758.72363281 -50.61425781 C-622.72952672 -50.61425781 -622.72952672 -50.61425781 -617.73144531 -45.62597656 C-614.69226322 -41.06720343 -612.16376445 -36.2642943 -609.59863281 -31.42675781 C-608.43015726 -29.24534205 -607.26088029 -27.06435539 -606.09082031 -24.88378906 C-605.51686523 -23.81209473 -604.94291016 -22.74040039 -604.3515625 -21.63623047 C-602.1809835 -17.60692231 -599.95957971 -13.60754963 -597.72363281 -9.61425781 C-593.83027879 -2.64632036 -590.01686895 4.36283956 -586.22363281 11.38574219 C-582.10481724 19.00879345 -577.95555247 26.61214436 -573.73657227 34.18017578 C-569.77806848 41.28115878 -565.84077076 48.39375683 -561.91113281 55.51074219 C-561.56693298 56.13397369 -561.22273315 56.7572052 -560.86810303 57.39932251 C-556.21385257 65.82992751 -551.6048003 74.28336469 -547.03613281 82.76074219 C-542.39011224 91.38082938 -537.60968794 99.91473357 -532.76049805 108.421875 C-527.56410761 117.58134779 -522.59882233 126.86029285 -517.65966797 136.16015625 C-517.05944824 137.28905273 -516.45922852 138.41794922 -515.84082031 139.58105469 C-515.31085449 140.58152832 -514.78088867 141.58200195 -514.23486328 142.61279297 C-512.79790722 145.24945645 -511.27604287 147.81594184 -509.72363281 150.38574219 C-509.72281566 148.89430223 -509.72281566 148.89430223 -509.721982 147.37273216 C-509.70759046 123.18613944 -509.66458988 98.99972678 -509.59154224 74.81323814 C-509.55688022 63.11684455 -509.53153512 51.42056896 -509.52807617 39.72412109 C-509.52503798 29.5302058 -509.50456685 19.33650059 -509.46310824 9.14266646 C-509.44176357 3.74440276 -509.42918526 -1.65356215 -509.43747902 -7.05186844 C-509.44500973 -12.13272851 -509.42923595 -17.21298268 -509.39557266 -22.29373169 C-509.38732762 -24.15853464 -509.38760329 -26.02339771 -509.3970356 -27.88819504 C-509.40864433 -30.43542513 -509.38956133 -32.98066509 -509.36286926 -35.52774048 C-509.37887915 -36.63379086 -509.37887915 -36.63379086 -509.39521247 -37.76218569 C-509.32166651 -41.52591511 -508.73908164 -44.10183721 -506.496768 -47.07246685 C-503.54037595 -49.78222678 -502.61866341 -50.36501432 -498.7142334 -50.36943054 C-497.73012985 -50.38490433 -496.74602631 -50.40037811 -495.73210144 -50.4163208 C-494.66389664 -50.40260437 -493.59569183 -50.38888794 -492.49511719 -50.37475586 C-491.36125076 -50.38366348 -490.22738434 -50.39257111 -489.05915833 -50.40174866 C-485.31131445 -50.42305789 -481.56518486 -50.40070757 -477.81738281 -50.37597656 C-475.21333643 -50.37747862 -472.6092905 -50.38090775 -470.00524902 -50.38618469 C-464.54773409 -50.3925203 -459.09071223 -50.37428216 -453.63330078 -50.34155273 C-447.32949192 -50.30405916 -441.026617 -50.30583778 -434.72275877 -50.32859391 C-428.65124624 -50.34956441 -422.58013333 -50.34216287 -416.50862122 -50.32227516 C-413.92821369 -50.31642172 -411.34777971 -50.31773301 -408.76737976 -50.32629967 C-405.16170281 -50.33428328 -401.55765247 -50.31006775 -397.95214844 -50.27709961 C-396.34984123 -50.28992477 -396.34984123 -50.28992477 -394.71516418 -50.30300903 C-393.73106064 -50.28746475 -392.74695709 -50.27192047 -391.73303223 -50.25590515 C-390.88133705 -50.2527212 -390.02964188 -50.24953726 -389.15213776 -50.24625683 C-385.4957942 -49.29472262 -384.00294154 -47.5785597 -381.72363281 -44.61425781 C-381.0927763 -41.37530041 -381.0927763 -41.37530041 -381.08439636 -37.63505554 C-381.07186285 -36.59959216 -381.07186285 -36.59959216 -381.05907613 -35.54321033 C-381.03717716 -33.23654123 -381.05074199 -30.93146908 -381.06420898 -28.62475586 C-381.05575478 -26.9688547 -381.04511022 -25.3129635 -381.03244019 -23.65708923 C-381.00427948 -19.16565448 -381.00676794 -14.67469707 -381.01473403 -10.1832006 C-381.0178576 -5.48793212 -380.99282912 -0.79281606 -380.97077942 3.90238953 C-380.93331479 12.79165808 -380.92119 21.68077365 -380.91815501 30.57011336 C-380.91346681 40.69102952 -380.88055114 50.81179217 -380.84525716 60.93264067 C-380.77329338 81.75032371 -380.7368012 102.56794439 -380.72363281 123.38574219 C-380.51070383 122.48024061 -380.51070383 122.48024061 -380.29347324 121.55644608 C-379.64309438 118.7950334 -378.99014766 116.03423396 -378.3371582 113.2734375 C-378.11390114 112.32381134 -377.89064407 111.37418518 -377.66062164 110.39578247 C-376.11405021 103.86784222 -374.41433352 97.4600388 -372.16113281 91.13574219 C-371.83016602 90.20084961 -371.49919922 89.26595703 -371.15820312 88.30273438 C-362.37454149 64.30465793 -349.87678518 42.16250852 -333.72363281 22.38574219 C-333.3135498 21.87414551 -332.9034668 21.36254883 -332.48095703 20.83544922 C-321.70971934 7.42040018 -309.5292018 -5.31049982 -295.72363281 -15.61425781 C-294.82620361 -16.28569824 -294.82620361 -16.28569824 -293.91064453 -16.97070312 C-283.01193731 -25.06040955 -271.66753099 -32.17222863 -259.72363281 -38.61425781 C-259.06024902 -38.97471191 -258.39686523 -39.33516602 -257.71337891 -39.70654297 C-174.144874 -84.24942947 -69.84009491 -64.07072537 0 0 Z M-232.24316406 103.24902344 C-240.4815256 113.66698298 -246.42225992 124.85317068 -250.72363281 137.38574219 C-251.03945312 138.2584375 -251.35527344 139.13113281 -251.68066406 140.03027344 C-259.65604718 164.97790042 -255.67814014 192.81798672 -243.87524414 215.77563477 C-230.6694142 240.34811955 -209.32844019 256.85903231 -183.14550781 265.57714844 C-164.80248694 271.00426851 -143.83521981 270.31984807 -125.72363281 264.38574219 C-123.95826172 263.80759766 -123.95826172 263.80759766 -122.15722656 263.21777344 C-97.67836659 254.45303678 -77.47363673 235.21244822 -66.34863281 211.88574219 C-55.93728934 189.25784198 -53.35737983 161.10890177 -61.72363281 137.38574219 C-61.97032715 136.67530762 -62.21702148 135.96487305 -62.47119141 135.23291016 C-71.83650967 109.02266708 -90.31795812 89.22627686 -115.06347656 76.69433594 C-156.09108183 57.94288748 -202.81384054 69.70240187 -232.24316406 103.24902344 Z " fill="#000000" transform="translate(3009.7236328125,907.6142578125)"/>
<path d="M0 0 C1.31480347 -0.00861557 2.62960693 -0.01723114 3.98425293 -0.02610779 C7.57111219 -0.04850496 11.15752821 -0.04568533 14.74443054 -0.03678632 C17.74638453 -0.03165696 20.74825664 -0.03898458 23.75020218 -0.04625839 C30.83484379 -0.06322612 37.91926984 -0.05972265 45.00390625 -0.04296875 C52.29773325 -0.02604258 59.59096197 -0.04189534 66.88472366 -0.07419163 C73.1627099 -0.10093058 79.44051039 -0.10815222 85.71854782 -0.09967655 C89.4613041 -0.09476075 93.20370042 -0.09688948 96.94641113 -0.11746407 C101.12090126 -0.13931656 105.29426449 -0.12037426 109.46875 -0.09765625 C111.31430481 -0.11519455 111.31430481 -0.11519455 113.19714355 -0.13308716 C120.35220274 -0.0539274 125.23923409 0.77745517 130.734375 5.53344727 C131.51850155 6.19316387 131.51850155 6.19316387 132.31846905 6.86620808 C134.1771946 9.05487044 134.84523533 11.13187412 135.74726868 13.85733032 C136.30368294 15.51636887 136.30368294 15.51636887 136.87133789 17.20892334 C137.26869141 18.42412659 137.66604492 19.63932983 138.07543945 20.89135742 C138.50558462 22.18512434 138.93652871 23.47862587 139.36820984 24.7718811 C140.54223702 28.29651887 141.70513258 31.82474261 142.86625314 35.35364962 C144.0968701 39.08697655 145.33805654 42.816786 146.57817078 46.54696655 C148.94133797 53.66034202 151.29559969 60.77663045 153.64644545 67.89408624 C156.52406619 76.60545822 159.41083608 85.31379024 162.29882812 94.02172852 C162.55331687 94.789079 162.80780561 95.55642949 163.07000613 96.34703302 C164.09048976 99.42397217 165.11100401 102.50090114 166.13167799 105.57777715 C167.40185283 109.40686983 168.67160537 113.23610157 169.94044876 117.06563568 C175.4524239 133.70120722 180.98164251 150.3289607 186.68359375 166.90063477 C193.0176244 185.31145937 199.17716527 203.77961877 205.328125 222.25219727 C205.58816873 223.03305805 205.84821247 223.81391883 206.11613631 224.61844206 C210.43184389 237.57781424 214.7434567 250.53854801 219.05463409 263.4994278 C223.08140616 275.6051476 227.10936376 287.71047155 231.140625 299.81469727 C231.39942405 300.59180085 231.65822309 301.36890444 231.92486453 302.16955662 C239.62422101 325.28637234 247.396149 348.37619722 255.31988525 371.41723633 C258.75521965 381.40900763 262.16192658 391.41042524 265.53588867 401.4230957 C266.31552281 403.72932485 267.09995822 406.03393479 267.88842773 408.3371582 C269.06584151 411.77908319 270.2279112 415.22584586 271.38671875 418.67407227 C271.7416893 419.70083069 272.09665985 420.72758911 272.46238708 421.78546143 C272.77764847 422.73386902 273.09290985 423.68227661 273.41772461 424.65942383 C273.69748642 425.48396057 273.97724823 426.30849731 274.26548767 427.15802002 C274.83831856 430.06003513 274.77760809 431.75526388 273.734375 434.53344727 C270.20985331 437.11242542 267.70117734 437.9096952 263.36552429 437.92112732 C262.30161469 437.93103195 261.23770508 437.94093658 260.14155579 437.95114136 C258.98455673 437.94663971 257.82755768 437.94213806 256.63549805 437.9375 C254.79562317 437.94779488 254.79562317 437.94779488 252.9185791 437.95829773 C249.56081952 437.97345082 246.20361569 437.9750627 242.8458631 437.96935534 C240.03792632 437.96626049 237.23003956 437.97235953 234.4221099 437.97839409 C227.79348979 437.99243507 221.16499855 437.99088282 214.53637695 437.97949219 C207.71131601 437.9680227 200.88664856 437.98206757 194.06163949 438.00888866 C188.19137048 438.03108912 182.32122458 438.03767297 176.45091659 438.03181225 C172.94960569 438.02845042 169.44854672 438.03080519 165.94727135 438.04806328 C162.03850435 438.06648905 158.13021585 438.05230058 154.22143555 438.03515625 C153.07050919 438.04482422 151.91958282 438.05449219 150.73377991 438.06445312 C143.22188512 437.99556546 137.29081232 437.12447475 131.84547424 431.62617493 C130.52583286 429.14066336 129.7197322 426.76066701 128.95678711 424.04980469 C128.64313705 422.95153854 128.329487 421.8532724 128.0063324 420.72172546 C127.67810989 419.53939835 127.34988739 418.35707123 127.01171875 417.13891602 C126.66557022 415.91819901 126.31942169 414.69748199 125.96278381 413.43977356 C125.04499238 410.19729881 124.13468191 406.95291278 123.22796631 403.70733643 C122.30852074 400.4230256 121.37948663 397.14143185 120.45117188 393.85961914 C118.79696088 388.00537158 117.14802972 382.14970229 115.51364136 376.28988647 C114.8698772 374.0127488 114.1955548 371.74859016 113.51000977 369.48388672 C112.734375 366.53344727 112.734375 366.53344727 112.734375 362.53344727 C74.124375 362.53344727 35.514375 362.53344727 -4.265625 362.53344727 C-6.245625 370.45344727 -6.245625 370.45344727 -8.265625 378.53344727 C-9.35155295 382.5635942 -10.44777379 386.5863685 -11.578125 390.60375977 C-11.87372314 391.65449677 -12.16932129 392.70523376 -12.47387695 393.78781128 C-13.09078098 395.97428156 -13.70919206 398.16032719 -14.32910156 400.34594727 C-14.95813905 402.57086402 -15.58242132 404.7971302 -16.20214844 407.0246582 C-17.10883028 410.28319474 -18.02935988 413.53753064 -18.953125 416.79125977 C-19.36268433 418.27724167 -19.36268433 418.27724167 -19.78051758 419.79324341 C-21.7365387 426.59646485 -23.8581437 432.72900525 -30.265625 436.53344727 C-33.39833104 437.51938978 -36.26674646 437.66553403 -39.5411377 437.68061829 C-41.14361107 437.69135124 -41.14361107 437.69135124 -42.77845764 437.70230103 C-43.94533615 437.70498993 -45.11221466 437.70767883 -46.31445312 437.71044922 C-47.54731552 437.71702042 -48.78017792 437.72359161 -50.05039978 437.73036194 C-54.13256067 437.75008398 -58.21468235 437.76175487 -62.296875 437.77172852 C-63.70341511 437.7757773 -65.10995503 437.77989425 -66.51649475 437.7840786 C-73.12127365 437.80311319 -79.72604146 437.81735129 -86.33084249 437.82569057 C-93.9541613 437.83547542 -101.57719072 437.86183433 -109.20040751 437.90219146 C-115.09519655 437.9323282 -120.98990246 437.94715685 -126.88476706 437.95047158 C-130.40500339 437.95282367 -133.92492992 437.96180508 -137.44508362 437.98693275 C-141.36908306 438.01449357 -145.29269922 438.01038983 -149.21679688 438.00341797 C-150.38367538 438.01622803 -151.55055389 438.02903809 -152.75279236 438.04223633 C-153.82110794 438.03529251 -154.88942352 438.02834869 -155.9901123 438.02119446 C-157.38160114 438.02477699 -157.38160114 438.02477699 -158.80120087 438.02843189 C-162.07352873 437.37117815 -163.27933489 436.17658764 -165.265625 433.53344727 C-166.29783408 426.83453443 -162.72583124 419.09880209 -160.6105957 412.87133789 C-160.04426422 411.16861977 -160.04426422 411.16861977 -159.4664917 409.4315033 C-158.43292116 406.33003332 -157.39140381 403.23137545 -156.3461802 400.13381767 C-155.23727213 396.8413061 -154.13856867 393.54539098 -153.03862 390.24987793 C-151.17903085 384.68306688 -149.31292888 379.11847625 -147.44213867 373.55541992 C-144.85618265 365.86570126 -142.28151023 358.17224416 -139.70944524 350.47786999 C-132.01095882 327.45155129 -124.28432679 304.43521454 -116.40234375 281.47094727 C-110.19775594 263.3920343 -104.14842626 245.26189463 -98.109375 227.12719727 C-97.86044424 226.37972544 -97.61151348 225.63225361 -97.35503936 224.86213112 C-93.4892112 213.2534647 -89.62711673 201.64355672 -85.765625 190.03344727 C-81.65298226 177.66821751 -77.5390592 165.30341571 -73.421875 152.93969727 C-73.17370828 152.19435258 -72.92554156 151.44900789 -72.66985464 150.681077 C-66.42595479 131.92914975 -60.14230803 113.19245304 -53.72209549 94.49997711 C-49.73676648 82.8963528 -45.83978059 71.26673242 -42.0078125 59.61157227 C-41.5118 58.10567942 -41.01568721 56.59981961 -40.51947021 55.09399414 C-38.54857899 49.11077835 -36.57793832 43.12753253 -34.625 37.13842773 C-33.39250245 33.35988168 -32.14978999 29.58483238 -30.90018082 25.81191254 C-30.43631352 24.4050197 -29.97619388 22.99688476 -29.52013779 21.58744049 C-28.89281081 19.64991541 -28.25115651 17.71704694 -27.60888672 15.78442383 C-27.2514035 14.6934137 -26.89392029 13.60240356 -26.52560425 12.47833252 C-24.17984845 6.99571709 -21.10186323 3.74291924 -15.7208252 1.2835865 C-10.5968724 -0.2819388 -5.31270204 -0.02817856 0 0 Z M53.734375 155.53344727 C51.03848917 165.21198058 48.34274635 174.89055371 45.6471653 184.56917191 C44.39423606 189.06786113 43.14126524 193.56653877 41.88818359 198.06518555 C39.22508041 207.62601826 36.56276145 217.18706846 33.90179825 226.74849701 C32.43856043 232.00563505 30.97365317 237.26230476 29.50757027 242.51865005 C28.56393964 245.9026706 27.62133839 249.2869773 26.67896652 252.67134857 C26.23397198 254.26856787 25.78852462 255.86566109 25.34260941 257.4626236 C24.73162869 259.65094601 24.12221346 261.83969844 23.51318359 264.02856445 C23.16822845 265.26580261 22.82327332 266.50304077 22.46786499 267.777771 C21.69150528 270.21923549 21.69150528 270.21923549 21.734375 271.53344727 C43.514375 271.53344727 65.294375 271.53344727 87.734375 271.53344727 C81.53690483 247.90440285 75.11448551 224.35420141 68.49816895 200.83972168 C67.30867405 196.60992339 66.12231074 192.37924681 64.93554688 188.14868164 C63.20730948 181.98981283 61.47817795 175.83119667 59.74633789 169.67333984 C59.40486221 168.45906815 59.06338654 167.24479645 58.71156311 165.99372864 C57.72630669 162.5048769 56.73216787 159.01873018 55.734375 155.53344727 C55.074375 155.53344727 54.414375 155.53344727 53.734375 155.53344727 Z " fill="#000000" transform="translate(3537.265625,856.466552734375)"/>
<path d="M0 0 C0.52996582 0.46825195 1.05993164 0.93650391 1.60595703 1.41894531 C7.83653475 6.9400915 13.66825118 12.5927482 19 19 C19.80695313 19.9075 20.61390625 20.815 21.4453125 21.75 C33.25242438 35.11197552 42.75905882 50.22074664 51 66 C51.36689941 66.69577148 51.73379883 67.39154297 52.11181641 68.10839844 C69.05604543 100.67481001 76.47058075 136.62948109 76.3125 173.125 C76.31034485 174.02452393 76.3081897 174.92404785 76.30596924 175.85083008 C76.25265183 189.7503389 75.7793834 203.33841405 73 217 C72.69400879 218.50506104 72.69400879 218.50506104 72.38183594 220.04052734 C65.3444357 253.50147042 52.16942513 284.3376397 32 312 C31.54141602 312.63808594 31.08283203 313.27617188 30.61035156 313.93359375 C24.38596861 322.54689582 17.35690982 330.35363799 10 338 C9.52916992 338.49274414 9.05833984 338.98548828 8.57324219 339.49316406 C-32.91289202 382.72363467 -91.80864825 405.6572743 -151.15136719 406.96386719 C-209.10829053 407.69900814 -266.18544207 384.62228209 -308.19921875 344.921875 C-309.82297135 343.30164464 -311.41416828 341.65719415 -313 340 C-313.7734375 339.22785156 -314.546875 338.45570313 -315.34375 337.66015625 C-346.54007292 306.41795638 -367.19723793 266.30883051 -376.75 223.3125 C-376.94875732 222.42336914 -377.14751465 221.53423828 -377.35229492 220.61816406 C-380.55627954 205.47305374 -381.40864761 190.61713673 -381.375 175.1875 C-381.37445618 174.2452356 -381.37391235 173.30297119 -381.37335205 172.33215332 C-381.20761422 109.6408227 -355.95477293 51.16676595 -311.9375 6.6875 C-306.59963127 1.39709817 -300.921447 -3.37155325 -295 -8 C-294.06285156 -8.76570312 -293.12570312 -9.53140625 -292.16015625 -10.3203125 C-261.71079342 -34.69547811 -225.3089166 -49.57959071 -187 -56 C-186.2565332 -56.12987305 -185.51306641 -56.25974609 -184.74707031 -56.39355469 C-118.82187289 -67.42744849 -49.25789992 -43.8993653 0 0 Z M-191 -23 C-191.7950293 -22.83371094 -192.59005859 -22.66742187 -193.40917969 -22.49609375 C-222.01385221 -16.43625728 -248.9217627 -3.95518728 -272 14 C-272.56299805 14.43602539 -273.12599609 14.87205078 -273.70605469 15.32128906 C-293.53796795 30.89926287 -310.68276966 49.95476391 -323 72 C-323.41991211 72.74169434 -323.83982422 73.48338867 -324.27246094 74.24755859 C-335.02550811 93.40690914 -342.65701013 113.44496693 -347 135 C-347.24556641 136.21864746 -347.24556641 136.21864746 -347.49609375 137.46191406 C-355.70709898 180.60362128 -348.94301089 228.40970052 -328.04589844 267.06445312 C-326.98438143 269.02890383 -325.94952514 271.00609129 -324.9140625 272.984375 C-312.76034986 295.78333126 -295.18376285 316.00230158 -275 332 C-274.03449219 332.7940625 -273.06898437 333.588125 -272.07421875 334.40625 C-233.35841478 365.49695916 -181.54403512 379.16371502 -132.4375 374.25 C-129.28305503 373.88635172 -126.14150032 373.46181292 -123 373 C-122.22930176 372.8870459 -121.45860352 372.7740918 -120.66455078 372.65771484 C-85.31810414 367.16721877 -51.87740296 351.56080035 -25 328 C-24.175 327.28457031 -23.35 326.56914063 -22.5 325.83203125 C-11.45853812 316.08449068 -1.69208827 305.86421938 7 294 C7.41604492 293.43361816 7.83208984 292.86723633 8.26074219 292.28369141 C26.41164233 267.20205501 37.68744754 238.38520857 43 208 C43.12987305 207.29633301 43.25974609 206.59266602 43.39355469 205.86767578 C52.14413149 156.73453518 39.29266293 101.69561119 11.0859375 60.890625 C3.95681452 51.011316 -3.56420377 41.78999342 -12 33 C-12.69077637 32.27635254 -12.69077637 32.27635254 -13.39550781 31.53808594 C-19.54190243 25.13325847 -25.89386954 19.31674305 -33 14 C-34.02480469 13.22011719 -35.04960938 12.44023438 -36.10546875 11.63671875 C-65.91003409 -10.6282482 -104.70540183 -25.96936955 -142.171875 -26.203125 C-142.92789505 -26.21013931 -143.6839151 -26.21715363 -144.46284485 -26.22438049 C-146.89195781 -26.24179901 -149.32082686 -26.24823372 -151.75 -26.25 C-152.58046844 -26.25067474 -153.41093689 -26.25134949 -154.26657104 -26.25204468 C-166.75712572 -26.23591149 -178.76966417 -25.73099367 -191 -23 Z " fill="#000000" transform="translate(1850,908)"/>
<path d="M0 0 C9.57 0 19.14 0 29 0 C29 66.66 29 133.32 29 202 C115.13 202 201.26 202 290 202 C290 135.34 290 68.68 290 0 C299.57 0 309.14 0 319 0 C319.02278798 55.52680045 319.04049694 111.05360031 319.05106533 166.58040452 C319.05231611 173.12839143 319.05361043 179.67637833 319.05493164 186.22436523 C319.05532511 188.17983383 319.05532511 188.17983383 319.05572652 190.17480684 C319.06008378 211.3132077 319.06797163 232.45160585 319.0771528 253.59000509 C319.08648779 275.26251758 319.09205528 296.93502864 319.09408849 318.60754305 C319.09546404 331.99226395 319.09981635 345.3769772 319.10791647 358.76169575 C319.11318203 367.92664056 319.11480473 377.09158138 319.11350138 386.2565276 C319.1128577 391.55272862 319.11387886 396.84891623 319.11920547 402.1451149 C319.12403818 406.98526388 319.12433951 411.82539031 319.12089889 416.66554029 C319.12047307 418.42463169 319.12176989 420.18372445 319.12488318 421.94281315 C319.12884508 424.31782995 319.12676471 426.69276332 319.12304783 429.06777859 C319.12567484 429.76464619 319.12830186 430.46151378 319.13100848 431.17949858 C319.1141458 435.8858542 319.1141458 435.8858542 318 437 C308.76 437 299.52 437 290 437 C290 368.36 290 299.72 290 229 C203.87 229 117.74 229 29 229 C29.03962238 297.07898342 29.03962238 297.07898342 29.09008789 365.15795898 C29.09460449 378.29309082 29.09460449 378.29309082 29.09544373 384.43251038 C29.09637941 388.74163828 29.1001428 393.050754 29.10557556 397.35987854 C29.11240049 402.84533273 29.11449753 408.33076903 29.11307228 413.81622708 C29.1133706 415.83632289 29.11537361 417.85641928 29.11921513 419.87651145 C29.12414082 422.5914391 29.12300778 425.30629593 29.12025452 428.02122498 C29.12316718 428.8235106 29.12607985 429.62579622 29.12908077 430.45239353 C29.11412483 435.88587517 29.11412483 435.88587517 28 437 C18.76 437 9.52 437 0 437 C0 292.79 0 148.58 0 0 Z " fill="#000000" transform="translate(967,857)"/>
<path d="M0 0 C6.93 0 13.86 0 21 0 C25.04348805 8.57432682 28.50613518 17.29363635 31.8710022 26.14822388 C33.5208671 30.48848468 35.18315559 34.82399188 36.84375 39.16015625 C37.18751175 40.05860764 37.5312735 40.95705902 37.88545227 41.88273621 C41.48813141 51.29150116 45.14503298 60.67883516 48.8125 70.0625 C49.30532471 71.32407928 49.30532471 71.32407928 49.80810547 72.61114502 C53.64773023 82.43956711 57.49506615 92.26496628 61.34375 102.08984375 C62.83346388 105.89317805 64.32301926 109.69657439 65.8125 113.5 C66.18607635 114.45380554 66.55965271 115.40761108 66.94454956 116.39031982 C73.18680845 132.33090322 79.38189486 148.28944727 85.56216431 164.25415039 C92.08112846 181.0901725 98.65841027 197.90274382 105.25970459 214.70663452 C111.77765405 231.30098068 118.24268572 247.91515223 124.67724609 264.54199219 C131.15677372 281.28189076 137.69507733 297.99811494 144.25924683 314.70498657 C150.79819668 331.35000437 157.28074354 348.0161095 163.72549438 364.69781494 C168.23448222 376.36585874 172.78583635 388.01539838 177.4140625 399.63671875 C177.85803879 400.75255844 178.30201508 401.86839813 178.75944519 403.01805115 C180.90280822 408.40257208 183.0522242 413.78455471 185.21118164 419.1628418 C185.97818842 421.08505943 186.74504264 423.00733795 187.51171875 424.9296875 C187.86694611 425.8084404 188.22217346 426.6871933 188.58816528 427.59257507 C188.90800385 428.39717667 189.22784241 429.20177826 189.55737305 430.03076172 C189.83759811 430.72902069 190.11782318 431.42727966 190.40653992 432.146698 C191 434 191 434 191 437 C187.06754915 437.12368591 183.13585202 437.21437336 179.2019043 437.2746582 C177.20646445 437.31214374 175.21156948 437.37567535 173.21679688 437.43945312 C171.96318359 437.45556641 170.70957031 437.47167969 169.41796875 437.48828125 C168.26063232 437.51446533 167.1032959 437.54064941 165.91088867 437.56762695 C163 437 163 437 161.31225586 435.00488281 C159.64133192 431.17870015 158.06712753 427.33716361 156.5859375 423.43359375 C156.25896881 422.58339661 155.93200012 421.73319946 155.59512329 420.85723877 C154.51746351 418.05228252 153.44629795 415.24489146 152.375 412.4375 C151.62028909 410.47026808 150.86507285 408.50322996 150.109375 406.53637695 C148.5328441 402.43191097 146.9585166 398.32660994 145.38574219 394.22070312 C141.96957891 385.30712549 138.52855822 376.40316163 135.08670044 367.4994812 C134.00807095 364.70838466 132.93055226 361.91686148 131.85327148 359.12524414 C128.89994785 351.47531047 125.94088074 343.8281246 122.93359375 336.19921875 C122.28487305 334.55336792 122.28487305 334.55336792 121.62304688 332.87426758 C120.86330689 330.95223181 120.10055914 329.0313806 119.33398438 327.11206055 C117 321.21614616 117 321.21614616 117 319 C46.38 319 -24.24 319 -97 319 C-97.99 322.3 -98.98 325.6 -100 329 C-100.57039219 330.65236421 -101.15872503 332.29894903 -101.78320312 333.93164062 C-102.10272949 334.772341 -102.42225586 335.61304138 -102.75146484 336.47921753 C-103.2612085 337.8043486 -103.2612085 337.8043486 -103.78125 339.15625 C-104.14750488 340.11709503 -104.51375977 341.07794006 -104.89111328 342.06790161 C-106.09083528 345.21318241 -107.29542893 348.35657349 -108.5 351.5 C-109.34086765 353.70216886 -110.18135627 355.90448249 -111.02148438 358.10693359 C-112.77848388 362.71214927 -114.53713624 367.31672883 -116.296875 371.92089844 C-120.29502434 382.38602541 -124.27175056 392.85929351 -128.24926758 403.33227539 C-129.48010668 406.57262811 -130.71162163 409.81272315 -131.94335938 413.05273438 C-132.70182544 415.04817613 -133.4602891 417.04361879 -134.21875 419.0390625 C-134.72849365 420.37966232 -134.72849365 420.37966232 -135.24853516 421.74734497 C-135.72782471 423.00863724 -135.72782471 423.00863724 -136.21679688 424.29541016 C-136.49036011 425.01507965 -136.76392334 425.73474915 -137.04577637 426.47622681 C-138.37107256 429.98142924 -139.68420717 433.49121911 -141 437 C-150.57 437 -160.14 437 -170 437 C-169.12175223 432.60876116 -167.86874639 428.73643377 -166.25390625 424.59765625 C-165.97164185 423.8649501 -165.68937744 423.13224396 -165.39855957 422.37733459 C-164.45726172 419.93746758 -163.50998049 417.49997211 -162.5625 415.0625 C-161.89029982 413.32480132 -161.2183489 411.5870062 -160.54663086 409.84912109 C-153.52737061 391.70938363 -146.42697647 373.60108133 -139.32800293 355.49243164 C-135.56540852 345.89368588 -131.81131203 336.29163629 -128.0625 326.6875 C-127.5782103 325.44697876 -127.5782103 325.44697876 -127.08413696 324.18139648 C-121.21373789 309.14110647 -115.38176542 294.08602025 -109.55154419 279.03012085 C-102.99400087 262.10015042 -96.37922129 245.19315589 -89.74084473 228.29473877 C-83.62022185 212.7119782 -77.54231587 197.11328405 -71.5 181.5 C-64.62871369 163.74466458 -57.7010673 146.01220928 -50.73974609 128.29199219 C-44.61949122 112.71014127 -38.54274965 97.11206133 -32.5 81.5 C-26.13798133 65.06974566 -19.75851743 48.64640255 -13.33959961 32.23828125 C-12.45400407 29.97353245 -11.56938414 27.70840189 -10.68579102 25.44287109 C-9.45996947 22.3006639 -8.23048836 19.15991334 -7 16.01953125 C-6.63837769 15.09062576 -6.27675537 14.16172028 -5.9041748 13.20466614 C-5.56454712 12.34024399 -5.22491943 11.47582184 -4.875 10.58520508 C-4.43800781 9.46786736 -4.43800781 9.46786736 -3.9921875 8.32795715 C-2.78518501 5.49598226 -1.37673068 2.75346136 0 0 Z M10 39 C9.58339111 40.1245459 9.16678223 41.2490918 8.73754883 42.40771484 C-5.32648683 80.35519618 -5.32648683 80.35519618 -12.125 98.0625 C-18.03787676 113.46483573 -23.90047758 128.88599648 -29.75 144.3125 C-29.98728065 144.93820389 -30.22456131 145.56390778 -30.46903229 146.20857239 C-39.02488459 168.77028309 -47.5572391 191.34083904 -56.08007812 213.91503906 C-58.84539424 221.2392482 -61.6113603 228.56321031 -64.38006592 235.88613892 C-64.95423571 237.4050724 -65.52817444 238.92409325 -66.10186768 240.44320679 C-69.29153683 248.88883566 -72.50475377 257.32466076 -75.7578125 265.74609375 C-76.3708277 267.33632148 -76.98378436 268.92657177 -77.59667969 270.5168457 C-78.7557997 273.52409713 -79.92142417 276.5287144 -81.09082031 279.53198242 C-81.61026987 280.87799838 -82.12948886 282.22410334 -82.6484375 283.5703125 C-83.10395996 284.74352051 -83.55948242 285.91672852 -84.02880859 287.12548828 C-85.16004372 289.96800332 -85.16004372 289.96800332 -85 293 C-21.64 293 41.72 293 107 293 C104.67149862 285.12240394 104.67149862 285.12240394 101.96875 277.4375 C101.58082275 276.42107422 101.19289551 275.40464844 100.79321289 274.35742188 C100.36645264 273.24947266 99.93969238 272.14152344 99.5 271 C98.77322358 269.09791228 98.04646528 267.19581761 97.32008362 265.2935791 C96.49550831 263.13542746 95.66942791 260.97785559 94.84326172 258.8203125 C91.63665279 250.44066485 88.45246305 242.05246336 85.26538086 233.66537476 C84.46019156 231.54652328 83.65485181 229.42772897 82.84936523 227.30899048 C75.57315546 208.16946607 68.33441879 189.01592583 61.11352539 169.85546875 C55.09803332 153.89514233 49.05362452 137.94589888 43 122 C42.07061729 119.55152154 41.14125526 117.10303523 40.21191406 114.65454102 C39.75262512 113.44447891 39.29333618 112.23441681 38.82012939 110.98768616 C36.96831865 106.10862697 35.11669363 101.22949732 33.26513672 96.3503418 C32.33495839 93.89943463 31.40461867 91.44858871 30.47412109 88.99780273 C29.5432122 86.54584651 28.61256713 84.09379011 27.68218994 81.64163208 C26.77328231 79.24653221 25.86359034 76.85172982 24.95306396 74.45724487 C22.73498101 68.61567016 20.53990733 62.76707164 18.38769531 56.90087891 C17.97544708 55.78260208 17.56319885 54.66432526 17.13845825 53.51216125 C16.36030196 51.3973543 15.58794466 49.28040183 14.82223511 47.16105652 C14.47887115 46.22981461 14.1355072 45.29857269 13.78173828 44.33911133 C13.48437775 43.52146805 13.18701721 42.70382477 12.88064575 41.86140442 C12.14758967 39.81660653 12.14758967 39.81660653 10 39 Z " fill="#000000" transform="translate(419,857)"/>
<path d="M0 0 C-0.59872764 2.64716638 -1.20384419 5.29261385 -1.8125 7.9375 C-2.0609668 9.04061523 -2.0609668 9.04061523 -2.31445312 10.16601562 C-3.56369707 15.56369229 -5.16499722 20.77337388 -7 26 C-7.64735107 25.73372803 -8.29470215 25.46745605 -8.96166992 25.19311523 C-53.14855391 7.08744114 -104.11819103 -9.16224406 -151 10 C-160.10257242 13.90901483 -168.6001014 18.32316841 -176 25 C-176.91458984 25.77730469 -176.91458984 25.77730469 -177.84765625 26.5703125 C-190.91568028 38.46077832 -195.20739934 56.26158856 -196.1875 73.25 C-196.60250978 94.41549869 -191.48279417 114.06577112 -177 130 C-174.46875416 132.5200208 -171.7885068 134.77012562 -169 137 C-168.05253906 137.77214844 -167.10507812 138.54429687 -166.12890625 139.33984375 C-144.42753995 156.73554497 -118.27768861 167.98804241 -93.37109375 179.97412109 C-85.09697792 183.9646506 -76.8807317 188.0437273 -68.74609375 192.3125 C-67.97448914 192.71651031 -67.20288452 193.12052063 -66.40789795 193.53677368 C-49.57408941 202.44375456 -33.74970009 213.82225083 -20 227 C-19.13246094 227.804375 -18.26492188 228.60875 -17.37109375 229.4375 C4.68005061 250.51626104 18.48517375 276.35130555 19.28320312 307.13891602 C19.65443384 339.43289432 8.24200185 367.7446532 -14.3125 390.875 C-25.1362589 401.54113923 -38.25840304 408.76108257 -52 415 C-53.546875 415.70769531 -53.546875 415.70769531 -55.125 416.4296875 C-61.86671596 419.25629237 -68.77206603 421.04122497 -75.875 422.6875 C-77.18428467 422.99143677 -77.18428467 422.99143677 -78.52001953 423.30151367 C-91.72436599 426.20685776 -104.82445384 427.38448757 -118.3125 427.3125 C-119.04777924 427.31034485 -119.78305847 427.3081897 -120.5406189 427.30596924 C-157.6601507 427.1330576 -202.59887139 421.44067716 -235 402 C-232.69 394.08 -230.38 386.16 -228 378 C-218.001321 381.332893 -218.001321 381.332893 -213.49609375 383.05078125 C-185.66794185 393.49266175 -156.8225284 400.21068107 -127 401 C-125.97261719 401.03996094 -124.94523438 401.07992188 -123.88671875 401.12109375 C-91.05376956 401.83031883 -57.82955121 393.80835498 -33.53515625 370.73046875 C-15.61017753 351.42452094 -11.19888928 327.36090356 -11.86376953 301.80224609 C-12.94795718 279.50062267 -24.69783263 261.34607603 -40 246 C-40.74378906 245.23300781 -41.48757813 244.46601562 -42.25390625 243.67578125 C-62.58301726 223.9830598 -93.23688305 210.83759712 -118.5625 199 C-129.6430394 193.81347621 -140.32699259 187.97208247 -151 182 C-152.35805267 181.2473593 -153.71612365 180.49475163 -155.07421875 179.7421875 C-165.9975849 173.64362456 -176.24195798 166.82340412 -186 159 C-187.37478516 157.93845703 -187.37478516 157.93845703 -188.77734375 156.85546875 C-190.15599609 155.78232422 -190.15599609 155.78232422 -191.5625 154.6875 C-192.40941406 154.03136719 -193.25632812 153.37523437 -194.12890625 152.69921875 C-194.74636719 152.13847656 -195.36382813 151.57773438 -196 151 C-196 150.34 -196 149.68 -196 149 C-196.66 149 -197.32 149 -198 149 C-216.71694018 129.62291878 -225.7196361 104.14699072 -226.25 77.5625 C-225.72823724 52.70203927 -219.0110542 30.60940828 -202 12 C-201.25234375 11.15953125 -200.5046875 10.3190625 -199.734375 9.453125 C-185.15506998 -6.09169691 -165.48470833 -15.16783778 -145 -20 C-144.17016602 -20.19754883 -143.34033203 -20.39509766 -142.48535156 -20.59863281 C-95.14819344 -31.32277208 -42.84446153 -21.61876499 0 0 Z " fill="#000000" transform="translate(904,875)"/>
<path d="M0 0 C73.59 0 147.18 0 223 0 C223 8.25 223 16.5 223 25 C158.98 25 94.96 25 29 25 C29 85.39 29 145.78 29 208 C90.71 208 152.42 208 216 208 C216 216.25 216 224.5 216 233 C154.29 233 92.58 233 29 233 C29 300.32 29 367.64 29 437 C2 437 2 437 0 436 C0 292.12 0 148.24 0 0 Z " fill="#000000" transform="translate(27,858)"/>
<path d="M0 0 C9.57 0 19.14 0 29 0 C29 144.21 29 288.42 29 437 C19.43 437 9.86 437 0 437 C0 292.79 0 148.58 0 0 Z " fill="#000000" transform="translate(1374,856)"/>
</svg>
