<?xml version="1.0" encoding="UTF-8"?>
<svg version="1.1" xmlns="http://www.w3.org/2000/svg" width="750" height="750">
<path d="M0 0 C39.48445596 0 39.48445596 0 46.26953125 4.5078125 C54.94988206 13.60569917 56.28870129 23.37138796 56.08203125 35.52734375 C56.04142578 36.75130859 56.04142578 36.75130859 56 38 C55.98324219 38.76441406 55.96648438 39.52882813 55.94921875 40.31640625 C55.57487887 46.46627566 53.29478704 50.85721432 50 56 C49.34 56 48.68 56 48 56 C47.71125 56.639375 47.4225 57.27875 47.125 57.9375 C46 60 46 60 44 61 C45.20155782 66.93495596 46.74922538 72.58927942 48.78515625 78.2890625 C49.32100883 79.82290085 49.85681474 81.3567555 50.39257812 82.890625 C51.22898481 85.26532155 52.06754034 87.63924286 52.9074707 90.01269531 C53.72625053 92.33213346 54.53722611 94.65419622 55.34765625 96.9765625 C55.59870621 97.67778229 55.84975616 98.37900208 56.1084137 99.10147095 C56.34213181 99.77261932 56.57584991 100.4437677 56.81665039 101.13525391 C57.02157608 101.71433502 57.22650177 102.29341614 57.43763733 102.89004517 C58.23110767 105.8671037 58.56428283 108.9499798 59 112 C52.73 112 46.46 112 40 112 C38.9171875 108.0090625 38.9171875 108.0090625 37.8125 103.9375 C35.49487252 95.51637834 32.84251394 87.25990253 30 79 C29.22583847 76.73029914 28.45475424 74.45954511 27.6875 72.1875 C27.36136719 71.23230469 27.03523437 70.27710938 26.69921875 69.29296875 C26 67 26 67 26 65 C23.69 65 21.38 65 19 65 C19 80.51 19 96.02 19 112 C12.73 112 6.46 112 0 112 C0 75.04 0 38.08 0 0 Z M19 17 C19 27.56 19 38.12 19 49 C30.25683946 50.02899151 30.25683946 50.02899151 36 46 C39.40943582 40.3744309 39.49487135 32.51582963 38.375 26.1875 C37.16811017 21.85192125 35.97493934 19.4161396 32 17 C27.71 17 23.42 17 19 17 Z " fill="#000000" transform="translate(485,319)"/>
<path d="M0 0 C39.55 0 39.55 0 45.875 5.5 C46.57625 6.325 47.2775 7.15 48 8 C48.49371094 8.44472656 48.98742187 8.88945312 49.49609375 9.34765625 C56.20685725 16.72078082 55.78963533 28.83913837 55.4453125 38.1953125 C54.87059457 46.39226704 52.43354956 53.24027336 46.1875 58.75 C45.135625 59.4925 44.08375 60.235 43 61 C45.38566943 71.94062423 49.19100669 82.268765 53.0378418 92.75561523 C53.85874227 95.00007551 54.67000463 97.24784805 55.48046875 99.49609375 C55.73354294 100.17635117 55.98661713 100.85660858 56.24736023 101.55747986 C57.62176186 105.38202576 58 107.81792118 58 112 C52.06 112 46.12 112 40 112 C37.04706291 105.10981346 34.78526795 98.18111805 32.7512207 90.97875977 C31.68300131 87.21597966 30.4851568 83.62403648 29 80 C28.63751771 78.71620855 28.30192752 77.42436664 28 76.125 C27.10337383 72.38194154 26.07767804 68.69489615 25 65 C22.69 65 20.38 65 18 65 C18 80.51 18 96.02 18 112 C12.06 112 6.12 112 0 112 C0 75.04 0 38.08 0 0 Z M18 17 C18 27.56 18 38.12 18 49 C29.25683946 50.02899151 29.25683946 50.02899151 35 46 C37.42856707 41.90362182 37.30134873 37.63850211 37.25 33 C37.25773437 32.30132812 37.26546875 31.60265625 37.2734375 30.8828125 C37.25813908 26.82873045 37.00702175 23.55674741 35 20 C30.1 15.7 30.1 15.7 18 17 Z " fill="#000000" transform="translate(185,319)"/>
<path d="M0 0 C6.04468789 4.19450776 9.73924788 9.49625734 12.0546875 16.42578125 C12.32211304 19.82051086 12.32211304 19.82051086 12.34521484 23.7512207 C12.35193207 24.47061829 12.35864929 25.19001587 12.36557007 25.93121338 C12.38450861 28.30056744 12.38847229 30.66963754 12.390625 33.0390625 C12.3970564 34.69427098 12.40378501 36.34947833 12.41079712 38.00468445 C12.42275994 41.4721439 12.42647903 44.9395038 12.42529297 48.40698242 C12.42508997 52.83539803 12.45237642 57.26317052 12.48683739 61.69143391 C12.50915125 65.11025382 12.51312912 68.52892014 12.51207352 71.9478054 C12.51442333 73.57958375 12.52321175 75.21136672 12.53873825 76.84307289 C12.62529169 86.8796764 12.6233774 94.41136551 5.4921875 102.23828125 C4.285625 103.32109375 4.285625 103.32109375 3.0546875 104.42578125 C2.57644531 104.93109375 2.09820312 105.43640625 1.60546875 105.95703125 C-4.05556297 111.31861293 -12.09682865 110.94292804 -19.38671875 110.76953125 C-24.10195846 110.31405255 -27.1785591 109.24669789 -30.9453125 106.42578125 C-31.65429688 105.905 -32.36328125 105.38421875 -33.09375 104.84765625 C-37.57815513 101.25365647 -40.16545866 97.9611174 -41.9453125 92.42578125 C-42.22355391 89.73499725 -42.36682857 87.28092571 -42.34936523 84.59790039 C-42.35622849 83.84895004 -42.36309174 83.09999969 -42.37016296 82.32835388 C-42.38834416 79.87235116 -42.3846061 77.41699255 -42.37890625 74.9609375 C-42.38347223 73.24132583 -42.38877905 71.52171599 -42.39479065 69.80210876 C-42.4037047 66.20531787 -42.40131815 62.60874921 -42.39135742 59.01196289 C-42.37986991 54.4176715 -42.40008427 49.82414898 -42.42927456 45.22995853 C-42.44767843 41.68073202 -42.44733579 38.13168835 -42.44163704 34.58242607 C-42.44148434 32.88925536 -42.44748629 31.19607185 -42.45992851 29.50294685 C-42.57097205 11.91632252 -42.57097205 11.91632252 -36.0859375 4.21875 C-25.62953907 -4.66054702 -12.40103676 -7.2169968 0 0 Z M-22.5078125 16.23828125 C-25.00363963 20.03627905 -25.07926343 23.12242407 -25.10644531 27.56201172 C-25.11605286 28.82697479 -25.1256604 30.09193787 -25.13555908 31.39523315 C-25.140407 32.77780985 -25.14468585 34.16038864 -25.1484375 35.54296875 C-25.15419141 36.96159873 -25.15994911 38.38022869 -25.16571045 39.79885864 C-25.17621139 42.77297324 -25.18206003 45.74706088 -25.18554688 48.72119141 C-25.19103072 52.52657414 -25.21505982 56.33159892 -25.24351883 60.13686943 C-25.26216965 63.06744417 -25.26735209 65.99793309 -25.26888275 68.92856216 C-25.27190415 70.33115725 -25.27991542 71.73375101 -25.29306793 73.13628769 C-25.31017804 75.10104 -25.30639619 77.06594038 -25.30175781 79.03076172 C-25.30540344 80.14756317 -25.30904907 81.26436462 -25.31280518 82.41500854 C-24.78051332 86.77593845 -23.00868797 89.36240578 -19.9453125 92.42578125 C-17.50518301 92.66865614 -17.50518301 92.66865614 -14.8203125 92.55078125 C-13.91023438 92.53273438 -13.00015625 92.5146875 -12.0625 92.49609375 C-11.36382812 92.47289062 -10.66515625 92.4496875 -9.9453125 92.42578125 C-9.9453125 91.76578125 -9.9453125 91.10578125 -9.9453125 90.42578125 C-8.4603125 89.93078125 -8.4603125 89.93078125 -6.9453125 89.42578125 C-5.52493099 86.58501823 -5.8101844 84.18038728 -5.80004883 81.00415039 C-5.79669022 80.34543442 -5.7933316 79.68671844 -5.78987122 79.00804138 C-5.78035486 76.82565436 -5.77841779 74.64334399 -5.77734375 72.4609375 C-5.77413172 70.94640572 -5.77076769 69.43187426 -5.76725769 67.91734314 C-5.76126477 64.7405424 -5.75941797 61.56376888 -5.76000977 58.38696289 C-5.76011142 54.31351949 -5.74645704 50.24025028 -5.72923756 46.16684818 C-5.71812673 43.03819475 -5.71609027 39.90958355 -5.71661949 36.7809124 C-5.71543807 35.27899004 -5.71100724 33.77706663 -5.70328712 32.27516365 C-5.69350526 30.17558668 -5.69635787 28.07638954 -5.70239258 25.97680664 C-5.70096756 24.78148819 -5.69954254 23.58616974 -5.69807434 22.35462952 C-5.72412456 19.23458844 -5.72412456 19.23458844 -7.9453125 16.42578125 C-8.6053125 16.42578125 -9.2653125 16.42578125 -9.9453125 16.42578125 C-9.9453125 15.76578125 -9.9453125 15.10578125 -9.9453125 14.42578125 C-16.59603628 13.77869582 -16.59603628 13.77869582 -22.5078125 16.23828125 Z " fill="#000000" transform="translate(148.9453125,321.57421875)"/>
<path d="M0 0 C16.17 0 32.34 0 49 0 C49 5.61 49 11.22 49 17 C38.77 17 28.54 17 18 17 C18 26.9 18 36.8 18 47 C26.91 47 35.82 47 45 47 C45 52.61 45 58.22 45 64 C36.09 64 27.18 64 18 64 C18 74.23 18 84.46 18 95 C28.23 95 38.46 95 49 95 C49 100.61 49 106.22 49 112 C32.83 112 16.66 112 0 112 C0 75.04 0 38.08 0 0 Z " fill="#000000" transform="translate(414,319)"/>
<path d="M0 0 C16.17 0 32.34 0 49 0 C49 5.61 49 11.22 49 17 C38.77 17 28.54 17 18 17 C18 26.9 18 36.8 18 47 C26.91 47 35.82 47 45 47 C45 52.61 45 58.22 45 64 C36.09 64 27.18 64 18 64 C18 74.23 18 84.46 18 95 C28.23 95 38.46 95 49 95 C49 100.61 49 106.22 49 112 C32.83 112 16.66 112 0 112 C0 75.04 0 38.08 0 0 Z " fill="#000000" transform="translate(264,319)"/>
<path d="M0 0 C5.94 0 11.88 0 18 0 C18.63015984 3.04067419 19.25415539 6.0824211 19.875 9.125 C20.04902344 9.96160156 20.22304688 10.79820312 20.40234375 11.66015625 C21.64582936 17.78547425 22.57582282 23.9196913 23.43310547 30.10986328 C24.51810958 37.55536519 25.8380191 44.96223485 27.125 52.375 C27.40513209 53.99736404 27.68508105 55.61975972 27.96484375 57.2421875 C28.64112623 61.16182488 29.31985883 65.08103043 30 69 C30.25692627 67.3439978 30.25692627 67.3439978 30.51904297 65.65454102 C31.16095825 61.52224338 31.80673014 57.39055582 32.45361328 53.2590332 C32.73199446 51.47761949 33.00935743 49.69604633 33.28564453 47.91430664 C33.68508553 45.33957054 34.08829818 42.76544785 34.4921875 40.19140625 C34.6131076 39.40665421 34.73402771 38.62190216 34.85861206 37.81336975 C35.59237625 33.16450272 36.50770035 28.59223579 37.55639648 24.00447083 C38.08411095 21.61993552 38.47808317 19.23475261 38.81640625 16.81640625 C38.94080078 15.95208984 39.06519531 15.08777344 39.19335938 14.19726562 C39.31517578 13.32779297 39.43699219 12.45832031 39.5625 11.5625 C39.81062792 9.79252087 40.06177951 8.02296216 40.31640625 6.25390625 C40.42412354 5.48377197 40.53184082 4.7136377 40.64282227 3.92016602 C41 2 41 2 42 0 C48.27 0 54.54 0 61 0 C60.37904586 3.35496095 59.75337688 6.70892833 59.125 10.0625 C58.95097656 11.00544922 58.77695312 11.94839844 58.59765625 12.91992188 C57.86100909 16.83506509 57.09992959 20.65584096 55.98828125 24.484375 C54.62703397 29.32675662 53.87473188 34.22784684 53.0625 39.1875 C51.86732146 46.28189312 50.57213918 53.26035361 48.7109375 60.21484375 C47.55808107 64.73125382 46.71050276 69.30543875 45.81640625 73.87890625 C44.92363119 78.42907206 43.96259918 82.96417803 43 87.5 C41.27228235 95.65522392 39.619298 103.82254509 38 112 C32.39 112 26.78 112 21 112 C20.61908203 109.71835937 20.61908203 109.71835937 20.23046875 107.390625 C19.88305633 105.3437086 19.53538621 103.29683593 19.1875 101.25 C19.02185547 100.25355469 18.85621094 99.25710938 18.68554688 98.23046875 C17.64102763 92.12101654 16.31694326 86.1617208 14.76977539 80.16162109 C13.32263457 74.21792505 12.25206482 68.19851236 11.125 62.1875 C9.30534816 52.59843351 7.41532497 43.03183635 5.3125 33.5 C5.10874756 32.5733252 4.90499512 31.64665039 4.69506836 30.69189453 C4.30912648 28.93888335 3.92283375 27.18594936 3.53613281 25.43310547 C2.73834246 21.8125323 1.94793573 18.19111602 1.1875 14.5625 C0.95417969 13.47066406 0.72085937 12.37882812 0.48046875 11.25390625 C0 8 0 8 0 0 Z " fill="#000000" transform="translate(332,319)"/>
<path d="M0 0 C5.91502397 4.59157112 10.03935396 10.46664871 11.0769043 17.97729492 C12.05200132 31.74639646 11.32270772 42.69758842 3.88720703 54.42578125 C1.80661563 57.79065634 0.03571463 61.32018931 -1.7890625 64.828125 C-2.53962224 66.2386765 -3.29092306 67.64883393 -4.04296875 69.05859375 C-7.5856649 75.75069589 -10.93203053 82.54160713 -14.2890625 89.328125 C-14.9490625 90.648125 -15.6090625 91.968125 -16.2890625 93.328125 C-7.3790625 93.328125 1.5309375 93.328125 10.7109375 93.328125 C10.7109375 98.938125 10.7109375 104.548125 10.7109375 110.328125 C-5.1290625 110.328125 -20.9690625 110.328125 -37.2890625 110.328125 C-38.42243652 91.06076659 -38.42243652 91.06076659 -32.59765625 82.83984375 C-30.16647293 79.24622876 -28.2877496 75.4843917 -26.4140625 71.578125 C-23.11054792 64.8153244 -19.52622802 58.23903397 -15.78955078 51.70605469 C-9.781841 41.1042139 -4.87974948 31.06188469 -8.2890625 18.703125 C-8.6190625 17.919375 -8.9490625 17.135625 -9.2890625 16.328125 C-10.5678125 16.26625 -11.8465625 16.204375 -13.1640625 16.140625 C-13.88335938 16.10582031 -14.60265625 16.07101562 -15.34375 16.03515625 C-15.98570312 16.13183594 -16.62765625 16.22851562 -17.2890625 16.328125 C-19.63676893 19.84968464 -19.66575864 21.83584343 -19.9140625 26.015625 C-20.0378125 28.09875 -20.1615625 30.181875 -20.2890625 32.328125 C-26.2290625 32.328125 -32.1690625 32.328125 -38.2890625 32.328125 C-38.62065115 22.93311318 -38.47073425 14.24525407 -33.2265625 6.140625 C-31.2890625 4.328125 -31.2890625 4.328125 -29.2890625 4.328125 C-29.1240625 3.73 -28.9590625 3.131875 -28.7890625 2.515625 C-23.25643382 -5.55279182 -7.52277467 -4.50731647 0 0 Z " fill="#000000" transform="translate(650.2890625,320.671875)"/>
<path d="M0 0 C16.17 0 32.34 0 49 0 C49 5.61 49 11.22 49 17 C38.44 17 27.88 17 17 17 C17 27.23 17 37.46 17 48 C26.24 48 35.48 48 45 48 C45 53.61 45 59.22 45 65 C35.76 65 26.52 65 17 65 C17 80.51 17 96.02 17 112 C11.39 112 5.78 112 0 112 C0 75.04 0 38.08 0 0 Z " fill="#000000" transform="translate(37,319)"/>
<path d="M0 0 C10.89 0 21.78 0 33 0 C33 36.96 33 73.92 33 112 C27.39 112 21.78 112 16 112 C16 80.98 16 49.96 16 18 C10.72 18 5.44 18 0 18 C0 12.06 0 6.12 0 0 Z " fill="#000000" transform="translate(679,319)"/>
</svg>
