<?xml version="1.0" standalone="no"?>
<!DOCTYPE svg PUBLIC "-//W3C//DTD SVG 20010904//EN"
 "http://www.w3.org/TR/2001/REC-SVG-20010904/DTD/svg10.dtd">
<svg version="1.0" xmlns="http://www.w3.org/2000/svg"
 width="512.000000pt" height="512.000000pt" viewBox="0 0 512.000000 512.000000"
 preserveAspectRatio="xMidYMid meet">

<g transform="translate(0.000000,512.000000) scale(0.100000,-0.100000)"
fill="#6B7280" stroke="none">
<path d="M275 5036 c-39 -17 -70 -52 -90 -98 -13 -33 -15 -267 -15 -2163 0
-1890 2 -2130 15 -2162 21 -50 42 -72 90 -94 38 -18 91 -19 1048 -19 l1007 0
0 -44 c0 -145 111 -301 257 -361 47 -19 78 -20 1018 -23 719 -2 984 0 1025 9
158 34 280 158 310 318 15 78 14 2402 -1 2473 -25 121 -115 234 -227 286 l-57
27 -467 3 -468 3 0 610 c0 528 -2 615 -15 647 -22 51 -525 557 -580 583 -38
18 -93 19 -1430 18 -1136 0 -1395 -2 -1420 -13z m2735 -371 c0 -250 4 -269 63
-305 29 -18 52 -20 260 -20 l227 0 -2 -572 -3 -573 -470 -5 -470 -5 -63 -33
c-84 -44 -146 -108 -185 -190 l-32 -67 -3 -1118 -2 -1117 -998 2 -997 3 -3
2100 c-1 1155 0 2106 3 2113 3 9 281 12 1340 12 l1335 0 0 -225z m430 -162 c0
-2 -61 -3 -135 -3 l-135 0 0 137 0 138 135 -135 c74 -74 135 -136 135 -137z
m1205 -1492 c49 -22 90 -62 119 -116 l21 -40 3 -1199 c3 -1321 5 -1262 -59
-1339 -17 -21 -50 -48 -72 -60 l-42 -22 -955 -3 c-732 -2 -965 0 -1000 10 -59
16 -144 98 -159 153 -8 28 -11 406 -11 1245 l0 1205 24 50 c24 53 70 99 121
121 24 11 222 13 1000 13 920 1 972 0 1010 -18z"/>
<path d="M1105 4561 c-96 -26 -139 -46 -217 -98 -210 -139 -333 -404 -299
-648 23 -165 84 -287 201 -406 137 -138 315 -206 514 -197 252 12 473 158 581
383 55 116 70 177 70 300 0 123 -15 184 -70 300 -78 164 -229 296 -399 351
-111 36 -279 43 -381 15z m340 -170 c176 -63 314 -228 345 -413 54 -311 -200
-608 -520 -608 -224 0 -434 155 -501 369 -28 90 -28 222 0 312 53 169 195 304
373 354 75 21 225 14 303 -14z"/>
<path d="M1234 4348 c-22 -10 -44 -47 -44 -72 0 -8 -14 -20 -32 -27 -85 -35
-138 -115 -138 -206 0 -115 72 -185 226 -221 106 -26 134 -42 134 -82 0 -37
-40 -60 -104 -60 -65 0 -94 17 -121 71 -13 25 -31 49 -40 53 -58 22 -115 -14
-115 -73 0 -68 78 -166 154 -191 20 -6 36 -18 36 -25 0 -44 44 -85 91 -85 28
0 69 44 69 74 0 19 7 26 29 31 48 10 115 61 141 106 33 60 32 142 -4 203 -30
52 -96 98 -163 115 -156 40 -182 56 -170 103 8 30 44 48 98 48 41 0 45 -3 119
-87 26 -31 74 -30 105 2 33 32 32 71 -5 128 -28 45 -108 107 -137 107 -7 0
-13 11 -13 25 0 14 -11 37 -25 50 -25 26 -56 31 -91 13z"/>
<path d="M622 2894 c-32 -22 -44 -58 -31 -91 19 -50 30 -52 231 -53 102 0 194
3 203 6 18 7 45 55 45 79 0 9 -13 30 -29 46 l-29 29 -184 0 c-152 0 -187 -3
-206 -16z"/>
<path d="M1286 2889 c-35 -27 -36 -86 -3 -117 23 -22 26 -22 431 -22 l407 0
24 25 c39 38 27 102 -22 124 -16 7 -150 11 -417 11 -383 0 -394 -1 -420 -21z"/>
<path d="M619 2420 c-29 -17 -43 -65 -27 -96 25 -53 33 -54 434 -54 355 0 372
1 397 20 13 11 28 31 31 45 7 29 -15 79 -39 89 -27 10 -778 6 -796 -4z"/>
<path d="M1661 2413 c-11 -10 -24 -32 -27 -50 -5 -27 -1 -37 24 -63 l30 -30
212 0 212 0 29 29 c36 36 37 73 4 106 l-24 25 -219 0 c-195 0 -222 -2 -241
-17z"/>
<path d="M630 1947 c-38 -19 -55 -61 -40 -98 7 -16 21 -34 31 -39 10 -6 112
-10 228 -10 l210 0 20 26 c35 45 24 96 -26 122 -31 17 -389 16 -423 -1z"/>
<path d="M1265 1948 c-49 -26 -59 -77 -24 -122 l20 -26 430 0 430 0 24 25 c33
33 32 70 -4 106 l-29 29 -414 0 c-279 -1 -419 -4 -433 -12z"/>
<path d="M618 1466 c-26 -19 -39 -62 -28 -90 22 -58 -12 -56 782 -56 511 0
734 3 751 11 49 22 61 86 22 124 l-24 25 -743 0 c-594 -1 -746 -3 -760 -14z"/>
<path d="M645 1003 c-48 -12 -73 -61 -55 -108 21 -56 14 -56 806 -53 l726 3
24 28 c30 36 30 68 0 104 l-24 28 -729 1 c-400 1 -737 0 -748 -3z"/>
<path d="M2784 2729 c-41 -12 -91 -69 -99 -112 -4 -18 -5 -110 -3 -204 3 -196
8 -210 89 -251 l44 -22 835 2 c934 3 874 -2 922 75 22 36 23 46 23 223 0 215
-7 238 -85 278 l-44 22 -826 -1 c-464 0 -839 -5 -856 -10z m1651 -289 l0 -135
-797 -3 -798 -2 0 140 0 140 798 -2 797 -3 0 -135z"/>
<path d="M2862 1951 c-38 -10 -77 -43 -98 -83 -9 -17 -14 -59 -14 -116 0 -98
15 -133 73 -176 26 -20 41 -21 210 -21 164 0 185 2 217 20 52 30 80 93 80 179
0 87 -26 145 -78 178 -34 21 -49 23 -197 25 -88 1 -175 -2 -193 -6z m306 -198
l-3 -38 -127 -3 -128 -3 0 41 0 40 131 0 130 0 -3 -37z"/>
<path d="M3457 1946 c-83 -31 -107 -74 -107 -194 0 -76 3 -94 23 -122 48 -71
60 -75 250 -78 163 -3 174 -2 217 20 63 32 90 88 90 183 0 87 -28 150 -80 180
-31 17 -55 20 -195 22 -118 2 -170 -1 -198 -11z m311 -193 l-3 -38 -127 -3
-128 -3 0 41 0 40 131 0 130 0 -3 -37z"/>
<path d="M4057 1946 c-80 -30 -107 -77 -107 -191 0 -92 16 -133 66 -171 37
-29 38 -29 202 -32 191 -4 234 6 280 66 24 32 27 45 30 126 2 80 0 96 -20 130
-41 71 -70 81 -253 83 -118 2 -170 -1 -198 -11z m311 -193 l-3 -38 -127 -3
-128 -3 0 41 0 40 131 0 130 0 -3 -37z"/>
<path d="M2830 1422 c-19 -9 -45 -32 -57 -51 -20 -29 -23 -47 -23 -125 0 -109
17 -149 76 -183 36 -21 52 -23 207 -23 191 0 218 7 263 66 27 35 29 43 29 135
0 108 -10 133 -75 177 -31 21 -43 22 -209 22 -148 0 -182 -3 -211 -18z m340
-182 l0 -40 -130 0 -130 0 0 40 0 40 130 0 130 0 0 -40z"/>
<path d="M3431 1422 c-62 -31 -76 -61 -79 -170 -4 -118 12 -154 79 -190 42
-22 52 -23 221 -20 160 3 179 5 204 24 60 44 69 67 69 174 0 109 -10 133 -75
178 -31 21 -43 22 -209 22 -148 0 -181 -3 -210 -18z m339 -182 l0 -40 -130 0
-130 0 0 40 0 40 130 0 130 0 0 -40z"/>
<path d="M4032 1424 c-59 -30 -77 -67 -80 -171 -3 -81 -1 -97 19 -132 15 -27
37 -48 65 -62 39 -19 58 -20 218 -17 191 3 201 6 250 72 32 42 36 180 7 238
-39 79 -51 83 -261 86 -156 2 -190 0 -218 -14z m338 -184 l0 -40 -130 0 -130
0 0 40 0 40 130 0 130 0 0 -40z"/>
<path d="M2830 908 c-63 -33 -80 -71 -80 -183 0 -102 16 -141 72 -175 30 -18
51 -20 214 -20 171 0 183 1 214 23 65 43 75 68 75 176 0 92 -2 100 -29 135
-44 59 -72 66 -259 66 -149 0 -166 -2 -207 -22z m340 -178 l0 -40 -130 0 -130
0 0 40 0 40 130 0 130 0 0 -40z"/>
<path d="M3431 908 c-67 -36 -83 -72 -79 -190 2 -79 7 -102 24 -125 41 -56 71
-63 263 -63 160 0 176 2 212 22 60 34 82 88 78 193 -4 90 -17 118 -73 159 -25
19 -44 21 -204 24 -169 3 -179 2 -221 -20z m339 -178 l0 -40 -130 0 -130 0 0
40 0 40 130 0 130 0 0 -40z"/>
<path d="M4034 910 c-25 -13 -49 -35 -63 -61 -20 -35 -22 -51 -19 -132 2 -78
7 -97 27 -126 39 -54 69 -61 263 -61 202 0 227 8 266 81 20 38 23 55 20 131
-3 93 -15 120 -72 162 -25 19 -44 21 -204 24 -162 2 -180 1 -218 -18z m336
-180 l0 -40 -130 0 -130 0 0 40 0 40 130 0 130 0 0 -40z"/>
</g>
</svg>
