<?xml version="1.0" encoding="UTF-8"?>
<svg version="1.1" xmlns="http://www.w3.org/2000/svg" width="3840" height="2160">
<path d="M0 0 C48.51 0 97.02 0 147 0 C163.85692259 47.19938324 163.85692259 47.19938324 168.82330322 61.19064331 C174.65252889 77.61099441 180.50613613 94.02255066 186.37124634 110.43011475 C194.17548895 132.26254186 201.94773536 154.10605193 209.6944313 175.95894241 C216.95239093 196.43291084 224.23939846 216.89626337 231.55532837 237.34960938 C235.96063925 249.66611847 240.3557265 261.9859856 244.7109375 274.3203125 C245.09148788 275.39755585 245.47203827 276.47479919 245.86412048 277.58468628 C247.64029344 282.61374871 249.41396231 287.6436675 251.18286133 292.67529297 C255.94327372 306.18499098 260.92665334 319.60483903 266 333 C266.47493896 331.81003418 266.94987793 330.62006836 267.43920898 329.39404297 C277.68678866 303.72425648 287.97190041 278.0699365 298.3125 252.4375 C298.57463665 251.78770927 298.8367733 251.13791855 299.10685349 250.46843719 C302.29591553 242.56363722 305.48615739 234.65931366 308.67688084 226.75518417 C311.39332825 220.02586112 314.10882518 213.29615461 316.82421875 206.56640625 C317.77302912 204.21492453 318.72184096 201.86344341 319.6706543 199.51196289 C320.3712648 197.77561081 320.3712648 197.77561081 321.08602905 196.00418091 C322.50233696 192.49420841 323.91875562 188.98428062 325.33520508 185.47436523 C331.86600447 169.29096582 338.39344266 153.1062136 344.91918945 136.92077637 C351.64316064 120.24370348 358.36753404 103.56679267 365.09375 86.890625 C365.34129343 86.27689152 365.58883686 85.66315804 365.84388161 85.03082657 C369.8940213 74.9895737 373.94715366 64.94953088 378.00126648 54.90988159 C380.63665114 48.38211854 383.2673025 41.8524751 385.89358521 35.32104492 C387.49221041 31.34653609 389.0933823 27.37305645 390.69506836 23.39978027 C391.43196049 21.56994685 392.16766479 19.73963457 392.90209961 17.90881348 C393.89652534 15.43015469 394.89502199 12.95317481 395.89453125 10.4765625 C396.32715019 9.39355362 396.32715019 9.39355362 396.76850891 8.28866577 C397.98301601 5.29000556 399.19740689 2.70388966 401 0 C404.0698855 -0.29406176 406.93793072 -0.39082768 410.01016235 -0.36076355 C411.42767652 -0.36460846 411.42767652 -0.36460846 412.87382734 -0.36853105 C416.06009805 -0.37349692 419.2459014 -0.35692983 422.43212891 -0.34057617 C424.70825693 -0.33973051 426.98438576 -0.34020386 429.26051331 -0.34190369 C435.45654933 -0.34276742 441.65241251 -0.32508049 447.84840822 -0.30418181 C454.31733616 -0.28547794 460.7862677 -0.28366955 467.25521851 -0.28010559 C478.11842207 -0.27182887 488.98155445 -0.25306701 499.84472656 -0.22631836 C511.035153 -0.1987925 522.22556218 -0.17755173 533.41601562 -0.16479492 C534.45022142 -0.16361267 534.45022142 -0.16361267 535.50532027 -0.16240653 C538.96409935 -0.15849149 542.42287855 -0.15470035 545.88165784 -0.15097082 C574.58781493 -0.11985717 603.29390498 -0.06678332 632 0 C633.9304597 3.53278173 635.85985379 7.06614436 637.7890625 10.59960938 C638.33312744 11.59522888 638.87719238 12.59084839 639.43774414 13.61663818 C643.03513395 20.20707271 646.56749733 26.82211576 650 33.5 C653.84557709 40.92781919 657.77793117 48.298223 661.8125 55.625 C666.85871256 64.79629108 671.68350433 74.07311701 676.46743774 83.38262939 C680.54441307 91.31182123 684.69350945 99.19229761 689 107 C693.64748637 115.42593058 698.10230672 123.94210914 702.5 132.5 C707.41686961 142.06760116 712.43555944 151.5673356 717.62817383 160.98901367 C721.96592538 168.87818395 726.13004263 176.85357146 730.2565918 184.85498047 C730.73265869 185.77553223 731.20872559 186.69608398 731.69921875 187.64453125 C732.12033936 188.46284424 732.54145996 189.28115723 732.9753418 190.12426758 C733.86110668 191.95496095 733.86110668 191.95496095 735 193 C735.76159738 191.56142717 736.5231944 190.12285415 737.28479004 188.6842804 C737.97887626 187.37323211 738.67296828 186.0621869 739.36706543 184.75114441 C741.35242832 181.00107768 743.33768145 177.2509529 745.32275391 173.50073242 C749.08364819 166.39585814 752.84498353 159.29122163 756.61047363 152.18878174 C758.532432 148.56359272 760.45380376 144.93809297 762.375 141.3125 C762.75229248 140.60059509 763.12958496 139.88869019 763.51831055 139.1552124 C768.17236 130.37148174 772.79550423 121.57290273 777.375 112.75 C781.5706828 104.66713 785.90084525 96.66734371 790.29052734 88.68847656 C794.82523137 80.40490793 799.15047377 72.01797412 803.46643066 63.61938477 C808.01565458 54.77203982 812.68092149 45.99955581 817.48974609 37.29003906 C820.32547653 32.13259629 823.08684571 26.94154245 825.78515625 21.7109375 C826.10523148 21.09060638 826.4253067 20.47027527 826.75508118 19.83114624 C828.32919313 16.77607477 829.89675059 13.71779435 831.45727539 10.65576172 C832.02051514 9.5576416 832.58375488 8.45952148 833.1640625 7.328125 C833.66373535 6.3474707 834.1634082 5.36681641 834.67822266 4.35644531 C836 2 836 2 838 0 C840.9322834 -0.24609566 840.9322834 -0.24609566 844.77029419 -0.24050903 C845.47437405 -0.24221788 846.1784539 -0.24392673 846.90386951 -0.24568737 C849.27471937 -0.24899452 851.64528928 -0.23795865 854.01611328 -0.22705078 C855.71096795 -0.22648693 857.40582311 -0.22680271 859.10067749 -0.22793579 C863.71202472 -0.22851133 868.32326862 -0.2167246 872.93459177 -0.20278788 C877.74991747 -0.19031391 882.56524535 -0.18911266 887.38058472 -0.18673706 C896.50369422 -0.18051246 905.62675598 -0.16408843 914.74984443 -0.14403808 C925.13420892 -0.12170952 935.51857565 -0.11069332 945.90295815 -0.10064721 C967.26866545 -0.07972302 988.63432972 -0.04452806 1010 0 C1008.63523419 3.48940348 1007.13754403 6.6641191 1005.234375 9.89453125 C1004.68128662 10.8376416 1004.12819824 11.78075195 1003.55834961 12.75244141 C1002.66321655 14.26717041 1002.66321655 14.26717041 1001.75 15.8125 C1000.47514587 17.98300564 999.20040956 20.15358049 997.92578125 22.32421875 C997.27303223 23.4332959 996.6202832 24.54237305 995.94775391 25.68505859 C993.51155345 29.83130198 991.09164542 33.98689688 988.67285156 38.14331055 C983.11756092 47.68843781 977.52180545 57.20873174 971.89428711 66.71142578 C967.90205718 73.45839708 963.94473127 80.22516351 960 87 C954.99818828 95.59030799 949.95979383 104.15791504 944.89453125 112.7109375 C940.90229102 119.45811349 936.94482267 126.22500653 933 133 C928.52667977 140.68265594 924.03005764 148.35066031 919.5 156 C914.30399585 164.77425713 909.15508334 173.57519609 904.02172852 182.38623047 C898.04611097 192.64182881 892.0338996 202.87535905 885.98828125 213.08984375 C879.69892763 223.7177089 873.44546921 234.36525643 867.23144531 245.03735352 C862.81682541 252.61374621 858.36274854 260.1660645 853.89453125 267.7109375 C849.90229102 274.45811349 845.94482267 281.22500653 842 288 C838.08637547 294.72141255 834.16906162 301.44016641 830.19496727 308.12606812 C829.12407298 309.94184196 828.06442298 311.76433704 827.0206852 313.59585571 C824.37744124 318.19627497 821.68200488 322.5093572 818.35848999 326.64990234 C803.94482778 345.73027412 806.07964336 367.39450288 806.37855577 390.23277664 C806.4386101 395.97021597 806.41814772 401.70740598 806.40682983 407.44506836 C806.39739925 418.27161091 806.45864512 429.09650999 806.54635084 439.92265415 C806.66090419 454.57892097 806.66412247 469.23520646 806.67412949 483.89184761 C806.69274705 506.9289456 806.85824365 529.96256791 807 553 C759.48 553 711.96 553 663 553 C663.11794922 530.96863281 663.11794922 530.96863281 663.23828125 508.4921875 C663.25911336 499.15879006 663.276633 489.8255786 663.27929688 480.4921875 C663.28413132 465.69425495 663.30205975 450.89721008 663.40795898 436.09960938 C663.48504515 425.31941782 663.51565823 414.54022678 663.49218339 403.75976861 C663.48134855 398.05956753 663.49261514 392.36147816 663.55968666 386.66161728 C664.75323634 354.14086583 664.75323634 354.14086583 650.55237293 325.90768909 C648.15569507 322.96244564 646.41757991 319.77260742 644.57421875 316.45703125 C643.93137939 315.35834717 643.28854004 314.25966309 642.6262207 313.12768555 C641.98644287 312.03367432 641.34666504 310.93966309 640.6875 309.8125 C635.09252471 300.25283591 629.46753396 290.71176772 623.8125 281.1875 C616.47658319 268.82925343 609.22646702 256.42247507 602 244 C594.66966863 231.40665772 587.31922153 218.82640631 579.89428711 206.28857422 C575.30510402 198.53273671 570.76504268 190.74879295 566.23046875 182.9609375 C562.34490404 176.29258476 558.43271483 169.64064257 554.5 163 C549.96992204 155.35067127 545.47343126 147.68259166 541 140 C531.44734394 123.59882028 521.79881205 107.25539364 512 91 C509.19549543 93.80450457 508.15548767 97.20761565 506.71875 100.8359375 C506.39350845 101.64494507 506.06826691 102.45395264 505.73316956 103.28747559 C505.02474459 105.05109444 504.31863301 106.81564388 503.61453247 108.58099365 C502.09473018 112.39096542 500.56358489 116.19634389 499.03297424 120.00198364 C498.23053987 121.99726857 497.42865919 123.99277625 496.62730408 125.98849487 C492.48395984 136.30243597 488.27774859 146.59028315 484.0625 156.875 C483.30984157 158.71270564 482.55723769 160.55043363 481.8046875 162.38818359 C480.29216323 166.08151705 478.77925909 169.77469458 477.26611328 173.46777344 C473.88212523 181.72784439 470.50325366 189.99000841 467.12399292 198.25201416 C465.24953791 202.83476173 463.37475223 207.41737402 461.5 212 C460.74999842 213.83333269 459.99999842 215.66666602 459.25 217.5 C433.75 279.83333333 408.25 342.16666667 382.75 404.5 C382.37873993 405.40752518 382.00747986 406.31505035 381.62496948 407.25007629 C380.87507279 409.08315596 380.12517452 410.91623498 379.37527466 412.74931335 C377.49868102 417.33652245 375.62211503 421.92374284 373.74560547 426.51098633 C370.38970971 434.71460515 367.03363666 442.91815115 363.67649841 451.1212616 C361.82585956 455.64328403 359.97538764 460.16537477 358.125 464.6875 C357.57844254 466.02320541 357.57844254 466.02320541 357.02084351 467.38589478 C352.56500288 478.27610548 348.11374704 489.16817738 343.66796875 500.0625 C343.2203418 501.15939651 342.77271484 502.25629303 342.31152344 503.38642883 C340.14419052 508.6977623 337.97730792 514.00927898 335.81103516 519.32104492 C335.01595207 521.27002016 334.22086751 523.2189948 333.42578125 525.16796875 C333.08161667 526.0122644 332.73745209 526.85656006 332.38285828 527.72644043 C328.94217066 536.15943583 325.46790053 544.57795585 322 553 C285.04 553 248.08 553 210 553 C206.95102412 546.29225306 204.04545534 539.778458 201.5390625 532.890625 C201.0788974 531.64329842 201.0788974 531.64329842 200.60943604 530.37077332 C199.95312851 528.59136494 199.29850206 526.81133574 198.64544678 525.0307312 C196.8728193 520.20029746 195.08492848 515.37552209 193.296875 510.55078125 C192.75140518 509.07829674 192.75140518 509.07829674 192.19491577 507.57606506 C188.82721235 498.50168493 185.36669841 489.46475623 181.875 480.4375 C175.60363569 464.2112547 169.41381495 447.95489509 163.25 431.6875 C162.77581282 430.4361858 162.30162052 429.18487355 161.8274231 427.93356323 C159.9312144 422.92973298 158.03513942 417.92585209 156.13935852 412.92185974 C151.53827941 400.7782458 146.92671031 388.63862946 142.3125 376.5 C141.53507255 374.4546721 140.75764742 372.40934333 139.98022461 370.36401367 C138.81986228 367.3112515 137.65947996 364.25849694 136.4990387 361.20576477 C133.71719653 353.88752308 130.93648946 346.5688507 128.15625 339.25 C120.77893298 319.83024196 113.39822162 300.41180498 106 281 C100.22088248 265.8364772 94.45101109 250.66946164 88.6875 235.5 C88.29130463 234.457229 87.89510925 233.41445801 87.48690796 232.34008789 C84.25141593 223.82417504 81.01638617 215.3080866 77.78137207 206.79199219 C74.95862821 199.361247 72.13570598 191.93056962 69.3125 184.5 C68.91606293 183.45658447 68.51962585 182.41316895 68.11117554 181.33813477 C62.74785101 167.22272596 57.37759132 153.10997932 52 139 C44.21884476 118.58343561 36.45718032 98.15948567 28.69841003 77.73440552 C25.72739447 69.91356129 22.754593 62.09339713 19.78125 54.2734375 C18.49701305 50.8954366 17.21280929 47.51742308 15.92861938 44.1394043 C15.1144313 41.99791887 14.30012464 39.85647852 13.48568726 37.71508789 C11.31092166 31.99689301 9.13883764 26.27769621 6.97064209 20.55700684 C6.02596608 18.06840364 5.0769799 15.58147773 4.12744141 13.09472656 C3.57047767 11.6283161 3.0136639 10.16184867 2.45703125 8.6953125 C2.20410812 8.03651093 1.951185 7.37770935 1.69059753 6.69894409 C0 2.22749383 0 2.22749383 0 0 Z " fill="#004473" transform="translate(2800,803)"/>
<path d="M0 0 C1.79784187 -0.03024261 1.79784187 -0.03024261 3.63200378 -0.06109619 C4.97260794 -0.07829289 6.31321475 -0.0952842 7.65382385 -0.11209106 C9.05645117 -0.13307746 10.45907462 -0.15432379 11.86169434 -0.17581177 C24.69702307 -0.36397047 37.5336551 -0.46647183 50.3700552 -0.54795647 C59.85659094 -0.60946062 69.3407458 -0.71283463 78.82617706 -0.87065113 C85.49715505 -0.9778973 92.16748018 -1.03503431 98.83927971 -1.05608761 C102.82263873 -1.07013271 106.80288494 -1.10634289 110.78529167 -1.19732285 C136.98878623 -1.77131209 136.98878623 -1.77131209 142.60276794 3.06053162 C145.29285595 6.11334145 146.90386644 9.46133328 148.48023987 13.20773315 C149.90487231 15.25224213 149.90487231 15.25224213 151.37086487 16.9069519 C156.4341531 23.31989147 161.46801585 29.75480068 166.48023987 36.20773315 C170.63234359 41.55264139 174.79323683 46.89011505 178.98023987 52.20773315 C183.16724332 57.52535178 187.32805789 62.86288526 191.48023987 68.20773315 C197.4533857 75.89570029 203.45704385 83.55894594 209.48023987 91.20773315 C216.10892464 99.62542355 222.70785359 108.06533954 229.2815094 116.52609253 C234.65562878 123.44009531 240.06254023 130.32785882 245.48023987 137.20773315 C252.10892464 145.62542355 258.70785359 154.06533954 265.2815094 162.52609253 C270.65562878 169.44009531 276.06254023 176.32785882 281.48023987 183.20773315 C288.11118898 191.62829902 294.71273606 200.07081941 301.2881012 208.53488159 C304.83862881 213.1032433 308.40092518 217.66189729 311.98023987 222.20773315 C316.16724332 227.52535178 320.32805789 232.86288526 324.48023987 238.20773315 C330.4533857 245.89570029 336.45704385 253.55894594 342.48023987 261.20773315 C349.10892464 269.62542355 355.70785359 278.06533954 362.2815094 286.52609253 C367.21682918 292.87556344 372.17874735 299.20365151 377.15357971 305.52218628 C379.43110196 308.41582147 381.70544457 311.31195413 383.98023987 314.20773315 C386.70273987 317.67273315 386.70273987 317.67273315 389.48023987 321.20773315 C394.92523987 328.13773315 394.92523987 328.13773315 400.48023987 335.20773315 C400.81023987 224.65773315 401.14023987 114.10773315 401.48023987 0.20773315 C449.00023987 0.20773315 496.52023987 0.20773315 545.48023987 0.20773315 C545.48023987 182.69773315 545.48023987 365.18773315 545.48023987 553.20773315 C497.63023987 553.20773315 449.78023987 553.20773315 400.48023987 553.20773315 C394.54023987 545.28773315 394.54023987 545.28773315 388.48023987 537.20773315 C386.33189353 534.51762992 384.1836749 531.84952829 381.98023987 529.20773315 C377.12127002 523.30530484 372.48048677 517.27555178 367.92726135 511.13522339 C364.08326003 505.96757713 360.0966037 500.93237864 356.05030823 495.92233276 C352.28124057 491.24266717 348.61498611 486.49228465 344.98023987 481.70773315 C340.88305362 476.31599422 336.73107108 470.9792125 332.48023987 465.70773315 C328.22940598 460.4362505 324.07753539 455.0993919 319.98023987 449.70773315 C315.33654189 443.59734922 310.60421368 437.57029184 305.79103088 431.59274292 C302.19828791 427.12456249 298.68091548 422.60480534 295.19825745 418.05050659 C292.15760061 414.07730065 289.07768623 410.13679595 285.98023987 406.20773315 C282.45104319 401.72967491 278.94865285 397.23303565 275.48023987 392.70773315 C272.09244523 388.28878353 268.67559425 383.89445458 265.23023987 379.52023315 C261.02436803 374.18025258 256.83942711 368.82446504 252.66773987 363.45773315 C252.08041077 362.70234253 251.49308167 361.9469519 250.88795471 361.16867065 C247.88871116 357.31005201 244.89206352 353.44944044 241.89820862 349.5866394 C236.43488579 342.54295454 230.95061772 335.5221393 225.35523987 328.58273315 C220.78008347 322.90739474 216.3928519 317.11233707 212.05006409 311.25802612 C208.47944861 306.47207936 204.77178567 301.82004772 200.98023987 297.20773315 C196.12531661 291.30184821 191.480647 285.27576787 186.92726135 279.13522339 C183.08326003 273.96757713 179.0966037 268.93237864 175.05030823 263.92233276 C171.28124177 259.24266867 167.61492992 254.49232663 163.98023987 249.70773315 C159.28168637 243.5232762 154.50076781 237.41580318 149.61305237 231.37960815 C146.12214891 227.05800812 142.82040454 222.66128605 139.48023987 218.20773315 C139.15023987 328.75773315 138.82023987 439.30773315 138.48023987 553.20773315 C90.96023987 553.20773315 43.44023987 553.20773315 -5.51976013 553.20773315 C-7.39036242 551.33713086 -6.64482452 548.6417251 -6.65269572 546.1522513 C-6.65035455 545.27116983 -6.64801338 544.39008835 -6.64560127 543.48230743 C-6.64705471 542.55115929 -6.64850815 541.62001114 -6.65000564 540.66064638 C-6.65369345 537.49912069 -6.65016644 534.33764238 -6.64674377 531.17611694 C-6.6478945 528.90320133 -6.64948169 526.63028589 -6.65147102 524.35737085 C-6.65567106 518.07928865 -6.65357063 511.80122152 -6.6504848 505.52313924 C-6.6484645 499.458086 -6.65111413 493.39303647 -6.65363217 487.32798372 C-6.65890915 474.15025093 -6.65843705 460.97252297 -6.65555325 447.79478972 C-6.65304191 436.26302885 -6.65237902 424.73126975 -6.6535759 413.19950867 C-6.65365228 412.43584546 -6.65372867 411.67218224 -6.65380737 410.88537772 C-6.65411868 407.78575231 -6.65443708 404.6861269 -6.65476713 401.58650149 C-6.65782907 372.48431542 -6.65504802 343.38213244 -6.64967023 314.27994684 C-6.64492431 288.40024245 -6.64534892 262.52054297 -6.65013123 236.64083862 C-6.65548091 207.59332818 -6.65761195 178.54582048 -6.65451896 149.49830961 C-6.65419822 146.40419229 -6.65388539 143.31007497 -6.6535759 140.21595764 C-6.65349682 139.45405565 -6.65341774 138.69215366 -6.65333627 137.90716373 C-6.65219675 126.38005889 -6.65353287 114.85295601 -6.65605545 103.32585144 C-6.65890814 90.22462098 -6.65821396 77.12339613 -6.65277471 64.02216637 C-6.65008851 57.33055149 -6.64913477 50.63894788 -6.65242386 43.94733238 C-6.65538422 37.83228206 -6.6537984 31.71725113 -6.64844631 25.60220259 C-6.647321 23.37948396 -6.64791578 21.15676371 -6.65032209 18.93404609 C-6.6533233 15.93372642 -6.6502845 12.93347487 -6.64560127 9.93315887 C-6.64794244 9.0520774 -6.6502836 8.17099592 -6.65269572 7.26321501 C-6.63005025 0.10098754 -6.63005025 0.10098754 0 0 Z " fill="#004473" transform="translate(1781.519760131836,802.7922668457031)"/>
<path d="M0 0 C0.84594727 0.68932617 0.84594727 0.68932617 1.70898438 1.39257812 C15.4324201 12.64360468 28.06817748 25.00897862 39 39 C40.45745787 40.72990463 41.91581826 42.45904922 43.375 44.1875 C52.71766514 55.62982334 60.75331233 68.14258758 68 81 C68.42780762 81.75845215 68.85561523 82.5169043 69.29638672 83.29833984 C91.12333213 122.44850732 103.73872758 167.13023378 105 212 C105.02191406 212.76393066 105.04382813 213.52786133 105.06640625 214.31494141 C106.67242373 281.59369046 85.44506236 348.513234 43 401 C42.19949219 402.01191406 41.39898438 403.02382812 40.57421875 404.06640625 C29.38928514 418.03267326 16.93328392 431.60883436 2.86791992 442.71679688 C0.16688109 444.86714293 -2.48316976 447.06814226 -5.1328125 449.28125 C-40.57599408 478.28995693 -85.01273656 497.94082368 -130 506 C-131.07862305 506.19464844 -132.15724609 506.38929688 -133.26855469 506.58984375 C-164.48190472 511.96025989 -197.77875668 512.47193086 -229 507 C-230.49974365 506.75056641 -230.49974365 506.75056641 -232.02978516 506.49609375 C-275.94968954 499.0602109 -318.546175 481.10292405 -354 454 C-354.53834473 453.59168945 -355.07668945 453.18337891 -355.63134766 452.76269531 C-374.74680111 438.22266334 -393.57144086 421.28041618 -408 402 C-408.75410156 401.01990967 -408.75410156 401.01990967 -409.5234375 400.02001953 C-418.6211558 388.19455793 -426.66447965 375.98879593 -434 363 C-434.43795898 362.23252441 -434.87591797 361.46504883 -435.32714844 360.67431641 C-458.91925745 318.98182701 -470.25700368 270.70269415 -470.1875 223 C-470.18689575 222.22998657 -470.1862915 221.45997314 -470.18566895 220.66662598 C-470.15950959 208.34684364 -469.75349251 196.2117367 -468 184 C-467.87641113 183.11586426 -467.75282227 182.23172852 -467.62548828 181.32080078 C-457.37960628 110.46897436 -419.48464377 40.68832927 -362 -3 C-360.83679175 -3.91479543 -359.67406401 -4.83020206 -358.51171875 -5.74609375 C-320.62614571 -35.2445244 -276.13500458 -53.73001979 -229 -62 C-227.61796387 -62.2477417 -227.61796387 -62.2477417 -226.20800781 -62.50048828 C-146.24540567 -76.16677253 -62.1606205 -50.93618846 0 0 Z M-281 108 C-281.73428223 108.63591064 -281.73428223 108.63591064 -282.48339844 109.28466797 C-293.84088546 119.14054685 -302.75386741 130.45615927 -311 143 C-311.60714844 143.92039062 -312.21429688 144.84078125 -312.83984375 145.7890625 C-320.2825297 157.77161812 -325.24219599 171.28886974 -328.875 184.875 C-329.06594238 185.58599854 -329.25688477 186.29699707 -329.45361328 187.02954102 C-332.35688192 198.62024225 -333.36892132 210.26567564 -333.3125 222.1875 C-333.30686035 223.45198975 -333.3012207 224.71647949 -333.29541016 226.01928711 C-332.82907242 262.257423 -319.28854501 296.17384581 -295 323 C-294.23945313 323.89203125 -293.47890625 324.7840625 -292.6953125 325.703125 C-287.34731782 331.90756011 -281.51287583 337.04547157 -275 342 C-274.46745605 342.40750488 -273.93491211 342.81500977 -273.38623047 343.23486328 C-247.2045855 363.11394458 -215.71418077 373.46821075 -182.8125 373.3125 C-181.54801025 373.30686035 -180.28352051 373.3012207 -178.98071289 373.29541016 C-147.71746217 372.89309273 -118.12408929 362.66934478 -93 344 C-92.06414062 343.30648438 -91.12828125 342.61296875 -90.1640625 341.8984375 C-58.16282179 316.84174756 -38.3035624 281.18692908 -32.82470703 241.02832031 C-28.24312372 202.85543286 -38.10620482 162.17105218 -62 131.6875 C-63.31779624 130.11187406 -64.65126386 128.54922395 -66 127 C-66.70898438 126.18144531 -67.41796875 125.36289062 -68.1484375 124.51953125 C-70.39557379 121.97671914 -72.68783122 119.48372936 -75 117 C-75.71285156 116.20980469 -76.42570312 115.41960937 -77.16015625 114.60546875 C-100.96227945 89.33357465 -137.05948901 73.80671399 -171.53710938 71.79345703 C-175.08995742 71.69795568 -178.63343126 71.67067999 -182.1875 71.6875 C-184.08423462 71.69595947 -184.08423462 71.69595947 -186.01928711 71.70458984 C-220.95626679 72.15418339 -254.75499669 84.81304279 -281 108 Z " fill="#004473" transform="translate(500,857)"/>
<path d="M0 0 C0.82553241 0.00086648 1.65106483 0.00173296 2.50161338 0.0026257 C3.37222081 -0.00034542 4.24282824 -0.00331654 5.13981771 -0.0063777 C8.0816945 -0.01510642 11.02353079 -0.01657659 13.96541953 -0.01806521 C16.06627085 -0.0226913 18.16712132 -0.02771567 20.2679708 -0.03311038 C26.00108057 -0.04627679 31.73417859 -0.05269027 37.46730113 -0.05712104 C41.05877504 -0.0600515 44.65024575 -0.06415678 48.24171805 -0.06862521 C59.50408587 -0.08232565 70.76644637 -0.0919737 82.02882195 -0.0958271 C94.97606411 -0.10028184 107.92319932 -0.1176975 120.87040901 -0.1468277 C130.90137487 -0.16860062 140.93231104 -0.17854 150.96330023 -0.17986822 C156.93959623 -0.18090732 162.91579207 -0.18661826 168.8920629 -0.20468783 C228.06878645 -0.37343362 228.06878645 -0.37343362 256.17538047 5.8930676 C257.36478232 6.15055783 258.55418418 6.40804807 259.77962852 6.67334104 C301.99423761 16.08260436 341.70311081 34.86573539 375.30038047 62.1430676 C375.88271445 62.60970822 376.46504844 63.07634885 377.06502891 63.5571301 C392.13971133 75.7071332 406.66500376 89.64403527 418.30038047 105.1430676 C419.21057271 106.30291645 420.12213629 107.4616899 421.03475547 108.6196301 C432.50634292 123.34514124 442.51450792 139.23839853 450.38534141 156.17724729 C451.00214899 157.50236325 451.62801979 158.8232934 452.26229453 160.14013791 C462.94498416 182.32236633 469.88701292 205.96516904 474.30038047 230.1430676 C474.47827109 231.10696408 474.65616172 232.07086057 474.83944297 233.06396604 C479.86291575 261.85922966 479.60129809 294.42016073 474.30038047 323.1430676 C474.10702109 324.20235471 473.91366172 325.26164182 473.71444297 326.35302854 C465.58771682 369.30678943 447.81716525 410.99040224 420.30038047 445.1430676 C419.56045859 446.07634885 418.82053672 447.0096301 418.05819297 447.9711926 C405.41547467 463.71835063 391.28621866 478.76254611 375.30038047 491.1430676 C374.31940391 491.92939572 373.33842734 492.71572385 372.32772422 493.5258801 C321.11636419 534.26511174 257.41278421 553.37495523 192.53744102 553.25659299 C190.35821129 553.25631048 188.17898147 553.25647009 185.99975181 553.25703549 C180.11846936 553.25732099 174.23720753 553.25146436 168.35592985 553.24446154 C162.19669283 553.2381867 156.03745528 553.23762094 149.87821555 553.23643613 C138.23033231 553.23333496 126.58245852 553.22513799 114.93457943 553.21508664 C101.66730069 553.20388773 88.40002148 553.19840555 75.13273919 553.1933912 C47.85528105 553.18295431 20.57783129 553.16537847 -6.69961953 553.1430676 C-6.71672915 500.53120617 -6.73265089 447.9193445 -6.74196267 395.30748105 C-6.74210073 394.52944398 -6.74223879 393.75140692 -6.74238103 392.94979297 C-6.74537358 376.04303526 -6.74814381 359.13627752 -6.75068486 342.22951973 C-6.75193225 333.93906498 -6.7532288 325.64861023 -6.75455117 317.35815549 C-6.75468193 316.53313308 -6.75481269 315.70811067 -6.75494741 314.85808759 C-6.75921265 288.09207743 -6.76672686 261.32606938 -6.77591675 234.5600605 C-6.78533943 207.06625886 -6.79150267 179.57245839 -6.79353452 152.07865517 C-6.7938227 148.19990765 -6.79414834 144.32116013 -6.79449677 140.44241261 C-6.7945642 139.67898097 -6.79463162 138.91554933 -6.79470109 138.1289834 C-6.79588516 125.81446921 -6.80052955 113.49995862 -6.80645157 101.18544591 C-6.81232455 88.82057794 -6.8145911 76.45571354 -6.81312091 64.09084422 C-6.81242487 57.38505865 -6.81349912 50.67928431 -6.81882501 43.97350049 C-6.82365681 37.84545869 -6.82395964 31.7174347 -6.82051843 25.58939212 C-6.82009252 23.36193244 -6.82139008 21.13447169 -6.82450271 18.90701414 C-6.82846299 15.90028837 -6.82638524 12.89362856 -6.82266736 9.886904 C-6.82529437 9.00393233 -6.82792139 8.12096066 -6.83062801 7.21123227 C-6.81030436 0.0351847 -6.81030436 0.0351847 0 0 Z M137.30038047 123.1430676 C137.20234069 124.77893176 137.1748249 126.41905555 137.17453933 128.05785489 C137.17193158 129.12863168 137.16932383 130.19940847 137.16663706 131.30263305 C137.16886778 132.49355921 137.17109851 133.68448538 137.17339683 134.91150022 C137.17183684 136.16529965 137.17027684 137.41909908 137.16866958 138.71089244 C137.16447192 142.20699462 137.16656891 145.70306971 137.1696558 149.19917202 C137.17190791 152.96335516 137.16843123 156.72753347 137.16567588 160.49171567 C137.16121715 167.87204936 137.1621951 175.25237291 137.16508852 182.632707 C137.16734215 188.62809966 137.16765525 194.62348946 137.1665647 200.61888242 C137.16641147 201.47049411 137.16625824 202.32210579 137.16610036 203.1995239 C137.16578065 204.92927563 137.16545644 206.65902737 137.16512777 208.3887791 C137.16227268 224.62845347 137.16556046 240.86812221 137.17092814 257.10779566 C137.1753962 271.0578696 137.17462028 285.00793522 137.17000937 298.958009 C137.16466412 315.13751813 137.16254737 331.31702231 137.16562164 347.4965322 C137.1659402 349.22010573 137.16625458 350.94367925 137.1665647 352.66725278 C137.16671898 353.51539893 137.16687325 354.36354508 137.1670322 355.23739263 C137.16789751 361.22918112 137.1664342 367.22096648 137.16408515 373.21275449 C137.1612875 380.50957543 137.16202467 387.80638562 137.16736589 395.10320532 C137.17000338 398.82983254 137.17100718 402.55644179 137.16771674 406.2830689 C137.16421165 410.31360674 137.16838199 414.34409875 137.17339683 418.37463498 C137.1711661 419.56556115 137.16893538 420.75648731 137.16663706 421.98350215 C137.16924481 423.05427894 137.17185256 424.12505573 137.17453933 425.22828031 C137.17470168 426.15995164 137.17486403 427.09162298 137.1750313 428.05152678 C137.06754843 430.13141498 137.06754843 430.13141498 138.30038047 431.1430676 C141.00035575 431.2572051 143.6736981 431.30693926 146.37459922 431.31103635 C147.20177955 431.31527112 148.02895988 431.31950589 148.88120627 431.32386899 C151.58348159 431.3338243 154.28558992 431.33377881 156.98788047 431.3305676 C157.90363853 431.32996335 158.81939658 431.3293591 159.76290488 431.32873654 C209.33640036 431.23938352 257.54445231 420.56801242 293.98788047 384.8930676 C323.61376951 354.90120644 333.70883239 314.25927421 333.60311484 273.15893674 C333.09656623 236.94774608 322.33773428 203.28722398 299.30038047 175.1430676 C298.67002891 174.3696301 298.03967734 173.5961926 297.39022422 172.7993176 C293.41419587 168.08967126 289.04079665 164.0703467 284.30038047 160.1430676 C283.57334922 159.51658322 282.84631797 158.89009885 282.09725547 158.2446301 C275.00939017 152.30678268 267.33501372 147.66110542 259.30038047 143.1430676 C257.70129844 142.23041135 257.70129844 142.23041135 256.06991172 141.2993176 C224.39646128 124.32450859 188.81283215 121.98339401 153.61288047 121.9555676 C152.85165885 121.95447995 152.09043723 121.95339231 151.30614829 121.9522717 C149.15438055 121.95262182 147.00288371 121.96164499 144.85116172 121.97509885 C143.61019736 121.98259152 142.36923301 121.9900842 141.09066367 121.99780393 C138.39428032 121.82603844 138.39428032 121.82603844 137.30038047 123.1430676 Z " fill="#004473" transform="translate(1075.6996195316315,802.8569324016571)"/>
<path d="M0 0 C2.69802284 -0.36914349 2.69802284 -0.36914349 6.20083618 -0.36076355 C6.84366275 -0.36332682 7.48648932 -0.3658901 8.14879549 -0.36853105 C10.31250195 -0.37349024 12.47551751 -0.35694197 14.63916016 -0.34057617 C16.18623335 -0.33973036 17.73330775 -0.34020415 19.28038025 -0.34190369 C23.48891005 -0.34276685 27.69718498 -0.32508945 31.90565538 -0.30418181 C36.30056509 -0.28546826 40.69548019 -0.28366879 45.09042358 -0.28010559 C53.41670744 -0.27076943 61.74287357 -0.24613448 70.06910551 -0.21605712 C79.54658496 -0.18256189 89.02406995 -0.16603939 98.50159383 -0.15097082 C118.00112937 -0.11958624 137.50055523 -0.06679532 157 0 C157.30939011 0.82541039 157.61878021 1.65082077 157.93754578 2.50124359 C160.92057804 10.45940099 163.9039063 18.41744735 166.88753033 26.3753829 C168.4197189 30.46207199 169.9518108 34.54879727 171.48364258 38.63562012 C179.7109972 60.58535395 187.95835422 82.5274374 196.23071098 104.46025085 C205.63106896 129.38504731 215.00177997 154.32076863 224.34893799 179.26556396 C232.87528851 202.01946106 241.42567654 224.764138 250 247.5 C259.14347834 271.74504543 268.25676017 296.00123522 277.34893799 320.26556396 C285.87528868 343.01946152 294.42585968 365.76406868 303 388.5 C313.09206913 415.2617934 323.15311558 442.03509559 333.18676758 468.81884766 C334.01872419 471.03959236 334.85068798 473.26033437 335.68266487 475.48107147 C336.23149538 476.94603529 336.78030706 478.41100617 337.32909966 479.87598419 C341.07447698 489.87338023 344.82991903 499.86693556 348.59393501 509.85732841 C350.08834912 513.82469346 351.58112767 517.79267425 353.07390499 521.7606554 C354.2380446 524.8545124 355.40380159 527.94774592 356.57168579 531.04019165 C357.83583346 534.38769487 359.09609071 537.73663759 360.35546875 541.0859375 C360.72900482 542.0717128 361.10254089 543.0574881 361.48739624 544.07313538 C361.82179718 544.96471848 362.15619812 545.85630157 362.50073242 546.77490234 C362.79235764 547.54812836 363.08398285 548.32135437 363.38444519 549.11801147 C364 551 364 551 364 553 C313.51 553 263.02 553 211 553 C206.50055619 542.87625142 206.50055619 542.87625142 205.22338867 539.39038086 C204.78593575 538.20363014 204.78593575 538.20363014 204.33964539 536.99290466 C204.0354921 536.15864456 203.73133881 535.32438446 203.41796875 534.46484375 C203.08187088 533.55142715 202.74577301 532.63801056 202.39949036 531.69691467 C201.32597443 528.77814811 200.25645281 525.85794046 199.1875 522.9375 C191.23460404 501.24970149 183.11139103 479.63037608 175 458 C77.485 457.505 77.485 457.505 -22 457 C-22.33 458.65 -22.66 460.3 -23 462 C-23.45659994 463.35010999 -23.95066038 464.68809756 -24.48022461 466.0112915 C-24.78306366 466.77399353 -25.08590271 467.53669556 -25.3979187 468.32250977 C-25.8951091 469.55553833 -25.8951091 469.55553833 -26.40234375 470.81347656 C-26.75201202 471.69042175 -27.1016803 472.56736694 -27.46194458 473.47088623 C-28.61623587 476.36250933 -29.77672415 479.25159953 -30.9375 482.140625 C-31.741106 484.14878462 -32.54440587 486.15706678 -33.34741211 488.16546631 C-35.02936974 492.36953403 -36.71425967 496.57241044 -38.40136719 500.77441406 C-40.56841293 506.17214632 -42.72933076 511.57230573 -44.88822937 516.97330093 C-46.54529369 521.11749269 -48.20496745 525.26063523 -49.86550903 529.40343475 C-50.66361391 531.39517166 -51.46103813 533.38718145 -52.25778198 535.3794632 C-53.36850666 538.15538081 -54.48258491 540.92992765 -55.59765625 543.70410156 C-55.92911652 544.53421753 -56.26057678 545.3643335 -56.6020813 546.21960449 C-58.88559296 551.88559296 -58.88559296 551.88559296 -60 553 C-61.96161604 553.09666937 -63.92676645 553.12187097 -65.89076233 553.12025452 C-67.81125145 553.12231651 -67.81125145 553.12231651 -69.77053833 553.12442017 C-71.20257591 553.12088055 -72.63461326 553.11724573 -74.06665039 553.11352539 C-75.56431578 553.11324353 -77.0619813 553.11340124 -78.55964661 553.1139679 C-82.63798172 553.11425591 -86.71628767 553.10835864 -90.79461598 553.10139394 C-95.05207628 553.09516095 -99.30953718 553.09455665 -103.56700134 553.09336853 C-111.63473187 553.09025505 -119.70244891 553.08204144 -127.77017349 553.07201904 C-136.95260779 553.06085842 -146.13504272 553.05534758 -155.31748211 553.05032361 C-174.2116624 553.03985884 -193.10583012 553.02225907 -212 553 C-211.3846727 549.10513311 -210.63493728 545.63526061 -209.20019531 541.95922852 C-208.82674988 540.9938063 -208.45330444 540.02838409 -208.06854248 539.03370667 C-207.65920471 537.99262253 -207.24986694 536.95153839 -206.828125 535.87890625 C-206.18390594 534.21945229 -206.18390594 534.21945229 -205.52667236 532.526474 C-204.35198686 529.50272369 -203.17241588 526.48093248 -201.99099731 523.45980835 C-200.73881175 520.25361302 -199.49342715 517.04478107 -198.24804688 513.8359375 C-197.87043716 512.86303678 -197.87043716 512.86303678 -197.48519897 511.87048149 C-196.97253621 510.54955889 -196.45990206 509.22862518 -195.94729614 507.90768051 C-195.1668001 505.89708306 -194.38558775 503.88676509 -193.60424805 501.87649536 C-188.94795956 489.89215306 -184.35661736 477.88343412 -179.78210449 465.86764526 C-171.78474755 444.86135335 -163.72011809 423.88182113 -155.61474609 402.91699219 C-148.86698013 385.46086677 -142.16481572 367.98795666 -135.5 350.5 C-127.92313691 330.61890216 -120.28697151 310.76147231 -112.61474609 290.91699219 C-105.86698013 273.46086677 -99.16481572 255.98795666 -92.5 238.5 C-84.92313691 218.61890216 -77.28697151 198.76147231 -69.61474609 178.91699219 C-62.86697987 161.46086608 -56.16493598 143.98791124 -49.5 126.5 C-41.33925812 105.08847589 -33.11689909 83.70133177 -24.85253906 62.32958984 C-23.95113861 59.99838526 -23.04977097 57.66716798 -22.1484375 55.3359375 C-21.71140503 54.20562103 -21.27437256 53.07530457 -20.82409668 51.91073608 C-17.98514509 44.56328817 -15.162666 37.20970591 -12.3515625 29.8515625 C-11.64504478 28.00454763 -10.93850265 26.1575421 -10.23193359 24.31054688 C-8.94704927 20.95136198 -7.66678098 17.59046866 -6.38916016 14.22851562 C-5.82733094 12.75904479 -5.26533086 11.28963927 -4.703125 9.8203125 C-4.45527252 9.16390778 -4.20742004 8.50750305 -3.95205688 7.83120728 C-2.84451522 4.94772049 -1.72536658 2.58804987 0 0 Z M76 174 C66.32708386 202.36277876 56.69455745 230.73906562 47.09440136 259.12653923 C45.92763835 262.57658784 44.76073933 266.02659044 43.59375 269.4765625 C43.36290018 270.15903675 43.13205036 270.841511 42.89420509 271.54466629 C39.63438332 281.18084362 36.36653479 290.81426549 33.09160423 300.44531822 C32.41429602 302.43727424 31.73718275 304.42929642 31.06013489 306.42134094 C30.62057848 307.71457029 30.18101858 309.00779845 29.74145508 310.30102539 C29.52754277 310.93037648 29.31363047 311.55972757 29.09323597 312.20814991 C27.63892161 316.48625342 26.18229051 320.76356458 24.7253418 325.04077148 C23.97697549 327.24199914 23.22868027 329.44325097 22.48046875 331.64453125 C22.13991455 332.64233612 21.79936035 333.64014099 21.44848633 334.66818237 C21.13830566 335.58181549 20.828125 336.49544861 20.50854492 337.43676758 C20.10511116 338.62161491 20.10511116 338.62161491 19.69352722 339.83039856 C19.04419411 341.86174499 18.51723256 343.93106977 18 346 C56.94 346 95.88 346 136 346 C130.06 328.18 130.06 328.18 124 310 C119.8203125 297.42578125 119.8203125 297.42578125 117.96875 291.85522461 C110.99550456 270.88662132 103.92216313 249.95465704 96.75628662 229.05117798 C92.86166971 217.68592873 88.99494247 206.31116866 85.125 194.9375 C84.40887019 192.8332465 83.69272481 190.7289983 82.9765625 188.62475586 C81.31749444 183.74991 79.65866964 178.87498144 78 174 C77.34 174 76.68 174 76 174 Z " fill="#004473" transform="translate(2571,803)"/>
<path d="M0 0 C47.52 0 95.04 0 144 0 C144 142.23 144 284.46 144 431 C218.25 431 292.5 431 369 431 C369 471.26 369 511.52 369 553 C246.9 553 124.8 553 -1 553 C-1.04037864 414.35320137 -1.04037864 414.35320137 -1.04816496 361.33235037 C-1.05020628 347.46704896 -1.05229426 333.60174755 -1.05452599 319.73644616 C-1.05479583 318.05922358 -1.0550642 316.382001 -1.05533109 314.70477841 C-1.05960182 287.94218211 -1.0671085 261.17958792 -1.07629722 234.4169929 C-1.0857199 206.92319127 -1.09188314 179.4293908 -1.09391499 151.93558757 C-1.09420317 148.05684005 -1.0945288 144.17809253 -1.09487724 140.29934502 C-1.09494467 139.53591337 -1.09501209 138.77248173 -1.09508156 137.9859158 C-1.09626563 125.67140162 -1.10091002 113.35689103 -1.10683203 101.04237831 C-1.11270502 88.67751034 -1.11497157 76.31264594 -1.11350138 63.94777662 C-1.11280534 57.24199106 -1.11387958 50.53621671 -1.11920547 43.83043289 C-1.12403728 37.70239109 -1.1243401 31.5743671 -1.12089889 25.44632452 C-1.12047298 23.21886484 -1.12177055 20.99140409 -1.12488318 18.76394654 C-1.12884346 15.75722077 -1.12676571 12.75056096 -1.12304783 9.7438364 C-1.12567484 8.86086473 -1.12830186 7.97789306 -1.13100848 7.06816468 C-1.1141458 1.1141458 -1.1141458 1.1141458 0 0 Z " fill="#004473" transform="translate(658,803)"/>
</svg>
