<?xml version="1.0" encoding="UTF-8"?>
<svg version="1.1" xmlns="http://www.w3.org/2000/svg" width="356" height="141">
<path d="M0 0 C4.40344327 2.93562885 7.33575045 5.12819924 10.875 8.8125 C14.41653756 12.42815045 18.0072381 15.8720154 21.85693359 19.15551758 C24.17487925 21.1505141 26.46242529 23.17681591 28.74609375 25.2109375 C29.54587646 25.9229834 30.34565918 26.6350293 31.16967773 27.36865234 C32.07568726 28.17616943 32.07568726 28.17616943 33 29 C33.03758423 27.78098999 33.03758423 27.78098999 33.07592773 26.53735352 C33.19149118 22.87889248 33.31439584 19.22071472 33.4375 15.5625 C33.47681641 14.28310547 33.51613281 13.00371094 33.55664062 11.68554688 C33.61948242 9.86313477 33.61948242 9.86313477 33.68359375 8.00390625 C33.72025146 6.87799072 33.75690918 5.7520752 33.79467773 4.59204102 C34 2 34 2 35 1 C39.29 1 43.58 1 48 1 C48 22.12 48 43.24 48 65 C39.06451613 58.2983871 39.06451613 58.2983871 35.5 54.5625 C31.50100491 50.46747415 27.3463202 46.72541732 23 43 C19.04 39.535 19.04 39.535 15 36 C14.67 44.91 14.34 53.82 14 63 C9.38 63 4.76 63 0 63 C0 42.21 0 21.42 0 0 Z " fill="#000000" transform="translate(279,27)"/>
<path d="M0 0 C12 0 12 0 14 1 C14 21.13 14 41.26 14 62 C9.29784261 62.94043148 5.73251153 63.15775038 1 63 C0 62 0 62 -0.11352539 59.49975586 C-0.10828857 58.41573486 -0.10305176 57.33171387 -0.09765625 56.21484375 C-0.09515869 55.16159912 -0.09266113 54.10835449 -0.09008789 53.02319336 C-0.08098389 51.67491455 -0.07187988 50.32663574 -0.0625 48.9375 C-0.0315625 42.5334375 -0.0315625 42.5334375 0 36 C-8.58 36 -17.16 36 -26 36 C-26 44.58 -26 53.16 -26 62 C-28.124375 62.185625 -30.24875 62.37125 -32.4375 62.5625 C-34.22994141 62.71912109 -34.22994141 62.71912109 -36.05859375 62.87890625 C-37.02925781 62.91886719 -37.99992187 62.95882812 -39 63 C-40 62 -40 62 -40.12025452 59.56394958 C-40.11803391 58.48251175 -40.11581329 57.40107391 -40.11352539 56.28686523 C-40.11344986 55.0656749 -40.11337433 53.84448456 -40.11329651 52.58628845 C-40.10818911 51.24372314 -40.10297311 49.90115825 -40.09765625 48.55859375 C-40.09579199 47.19238842 -40.09436813 45.82618243 -40.09336853 44.4599762 C-40.08954394 40.85798305 -40.07971417 37.25603 -40.06866455 33.65405273 C-40.05844916 29.98096255 -40.05387064 26.30786591 -40.04882812 22.63476562 C-40.03809184 15.42315666 -40.02049553 8.21158905 -40 1 C-35.38 1 -30.76 1 -26 1 C-26 8.92 -26 16.84 -26 25 C-17.42 25 -8.84 25 0 25 C0 16.75 0 8.5 0 0 Z " fill="#000000" transform="translate(132,28)"/>
<path d="M0 0 C0.87760986 -0.00315216 1.75521973 -0.00630432 2.65942383 -0.009552 C3.61357178 -0.00752777 4.56771973 -0.00550354 5.55078125 -0.00341797 C6.52362061 -0.00437469 7.49645996 -0.00533142 8.4987793 -0.00631714 C10.56005925 -0.00699905 12.62134133 -0.00514399 14.68261719 -0.00097656 C17.84965813 0.00437153 21.01655725 -0.00092119 24.18359375 -0.00732422 C26.1809899 -0.00666344 28.17838596 -0.00538228 30.17578125 -0.00341797 C31.1299292 -0.0054422 32.08407715 -0.00746643 33.06713867 -0.009552 C34.38355347 -0.00482376 34.38355347 -0.00482376 35.7265625 0 C36.50298096 0.00079559 37.27939941 0.00159119 38.0793457 0.00241089 C39.86328125 0.12939453 39.86328125 0.12939453 40.86328125 1.12939453 C40.86328125 4.42939453 40.86328125 7.72939453 40.86328125 11.12939453 C30.30328125 11.12939453 19.74328125 11.12939453 8.86328125 11.12939453 C8.86328125 15.74939453 8.86328125 20.36939453 8.86328125 25.12939453 C19.09328125 25.12939453 29.32328125 25.12939453 39.86328125 25.12939453 C39.86328125 28.42939453 39.86328125 31.72939453 39.86328125 35.12939453 C37.04503933 36.53851549 34.69076843 36.24123006 31.54296875 36.22705078 C30.28613281 36.22382812 29.02929688 36.22060547 27.734375 36.21728516 C26.41566406 36.20890625 25.09695312 36.20052734 23.73828125 36.19189453 C22.39843914 36.18687943 21.05859525 36.18231654 19.71875 36.17822266 C16.43357468 36.16640548 13.14842244 36.14846954 9.86328125 36.12939453 C9.53328125 41.07939453 9.20328125 46.02939453 8.86328125 51.12939453 C19.42328125 51.12939453 29.98328125 51.12939453 40.86328125 51.12939453 C40.86328125 54.75939453 40.86328125 58.38939453 40.86328125 62.12939453 C39.31826674 63.67440904 37.87667905 63.25658585 35.7265625 63.25878906 C34.41014771 63.2635173 34.41014771 63.2635173 33.06713867 63.26834106 C32.11299072 63.26631683 31.15884277 63.2642926 30.17578125 63.26220703 C28.71652222 63.26364212 28.71652222 63.26364212 27.2277832 63.2651062 C25.16650325 63.26578811 23.10522117 63.26393306 21.04394531 63.25976562 C17.87690437 63.25441754 14.71000525 63.25971025 11.54296875 63.26611328 C9.5455726 63.2654525 7.54817654 63.26417134 5.55078125 63.26220703 C4.5966333 63.26423126 3.64248535 63.26625549 2.65942383 63.26834106 C1.78181396 63.2651889 0.9042041 63.26203674 0 63.25878906 C-0.77641846 63.25799347 -1.55283691 63.25719788 -2.3527832 63.25637817 C-4.13671875 63.12939453 -4.13671875 63.12939453 -5.13671875 62.12939453 C-5.2358767 60.23240604 -5.26471189 58.33170666 -5.26611328 56.43212891 C-5.26926544 55.21416626 -5.2724176 53.99620361 -5.27566528 52.74133301 C-5.2738755 51.40193648 -5.27182455 50.06254029 -5.26953125 48.72314453 C-5.27020435 47.35933413 -5.27117442 45.99552385 -5.27243042 44.63171387 C-5.27390713 41.77008932 -5.27175372 38.90849593 -5.26708984 36.046875 C-5.26139256 32.37120839 -5.26467171 28.69561479 -5.27066231 25.01995087 C-5.27426866 22.2027735 -5.273129 19.38561355 -5.27053452 16.56843567 C-5.26986545 15.2127939 -5.27069296 13.85715057 -5.27301407 12.50151062 C-5.27554176 10.60989409 -5.27100889 8.71827204 -5.26611328 6.82666016 C-5.26531769 5.74823853 -5.26452209 4.66981689 -5.26370239 3.55871582 C-5.05294322 -0.47331333 -3.62027651 0.00370968 0 0 Z " fill="#000000" transform="translate(176.13671875,27.87060546875)"/>
<path d="M0 0 C0 2 0 2 -1.64453125 3.7265625 C-2.35996094 4.35304688 -3.07539062 4.97953125 -3.8125 5.625 C-4.52019531 6.25664063 -5.22789063 6.88828125 -5.95703125 7.5390625 C-8 9 -8 9 -11 9 C-12.19625 8.484375 -13.3925 7.96875 -14.625 7.4375 C-19.24705059 5.61435782 -23.20734552 5.92612721 -28 7 C-28.99 7.495 -28.99 7.495 -30 8 C-30 9.98 -30 11.96 -30 14 C-24.71106913 16.749776 -19.44467037 19.24208552 -13.875 21.375 C-7.26125499 24.09379466 -1.91203119 27.48186261 1.5625 33.875 C2.30099236 39.14994544 2.48917813 43.58375605 -0.38671875 48.25 C-5.30957222 54.26805008 -10.3241112 56.80304452 -18 58 C-29.13798781 58.18195079 -38.6655815 56.22294566 -48 50 C-46.61811547 46.78956118 -45.07578097 44.95063635 -42.375 42.75 C-41.42753906 41.96882813 -41.42753906 41.96882813 -40.4609375 41.171875 C-39.73777344 40.59179688 -39.73777344 40.59179688 -39 40 C-34 42 -34 42 -31.70703125 43.05078125 C-28.62684126 44.13084787 -26.13313089 44.30025139 -22.875 44.3125 C-21.84117188 44.32925781 -20.80734375 44.34601563 -19.7421875 44.36328125 C-17.01479516 44.19466424 -17.01479516 44.19466424 -15.0703125 42.79296875 C-13.80301689 40.98942618 -13.80301689 40.98942618 -13.87890625 38.5 C-14.83197165 35.69345079 -14.83197165 35.69345079 -18.02734375 34.375 C-19.32420961 33.89853182 -20.62820609 33.44117169 -21.9375 33 C-23.30967188 32.49248884 -24.6807675 31.98205845 -26.05078125 31.46875 C-26.72447754 31.22125 -27.39817383 30.97375 -28.09228516 30.71875 C-35.21159392 28.03648164 -40.69448505 25.38882863 -45 19 C-46.58861829 14.23414513 -46.94877732 9.59641012 -45.19921875 4.80859375 C-41.83021485 -1.29266074 -36.61815452 -4.55279389 -30.04296875 -6.61328125 C-19.09404116 -8.6858316 -9.23565603 -5.8224788 0 0 Z " fill="#000000" transform="translate(68,34)"/>
<path d="M0 0 C1.093125 0.00257812 2.18625 0.00515625 3.3125 0.0078125 C4.405625 0.00523438 5.49875 0.00265625 6.625 0 C9.3125 0.1328125 9.3125 0.1328125 10.3125 1.1328125 C10.40641296 3.03525012 10.42993658 4.94119709 10.42602539 6.84594727 C10.42594986 8.0671376 10.42587433 9.28832794 10.42579651 10.54652405 C10.42068911 11.88908936 10.41547311 13.23165425 10.41015625 14.57421875 C10.40829199 15.94042408 10.40686813 17.30663007 10.40586853 18.6728363 C10.40204394 22.27482945 10.39221417 25.8767825 10.38116455 29.47875977 C10.37094916 33.15184995 10.36637064 36.82494659 10.36132812 40.49804688 C10.35059184 47.70965373 10.33351614 54.9212275 10.3125 62.1328125 C0.54779412 64.25045956 0.54779412 64.25045956 -3.6875 62.1328125 C-3.71062764 54.19667463 -3.72841723 46.26055074 -3.73931217 38.32438755 C-3.74454008 34.63966752 -3.75163605 30.95497047 -3.76293945 27.27026367 C-3.77377162 23.71710419 -3.77977753 20.16396687 -3.78237724 16.61079216 C-3.7842309 15.25235584 -3.78785038 13.89392079 -3.79323006 12.53549385 C-3.80044475 10.63899027 -3.80090809 8.74246457 -3.80102539 6.84594727 C-3.803246 5.76450943 -3.80546661 4.68307159 -3.80775452 3.56886292 C-3.6382353 0.13483508 -3.45619872 0.17080052 0 0 Z " fill="#000000" transform="translate(242.6875,27.8671875)"/>
</svg>
